{"glyphs":{"0":{"ha":462,"x_min":0,"x_max":0,"o":"m 378 0 l 378 1152 l 47 1152 l 47 0 z m 258 986 l 195 986 l 195 1002 l 203 1004 b 193 1023 199 1006 193 1013 b 204 1040 193 1031 197 1038 b 193 1061 197 1046 193 1053 b 221 1082 193 1074 202 1082 l 258 1082 l 258 1063 l 224 1063 b 210 1054 215 1063 210 1060 b 221 1044 210 1047 215 1044 l 258 1044 l 258 1025 l 222 1025 b 210 1016 215 1025 210 1022 b 222 1006 210 1008 216 1006 l 258 1006 z m 227 908 b 193 942 207 908 193 921 b 226 974 193 961 207 974 b 260 941 249 974 260 958 b 227 908 260 922 248 908 z m 227 928 b 245 941 237 928 245 932 b 227 954 245 949 238 954 b 208 941 217 954 208 950 b 227 928 208 932 217 928 z m 227 850 b 193 887 209 850 193 863 b 196 902 193 892 195 898 l 211 899 b 209 888 210 897 209 893 b 227 871 209 878 216 871 b 244 888 238 871 244 879 b 242 899 244 893 243 897 l 256 902 b 260 884 258 899 260 892 b 227 850 260 864 247 850 z m 248 819 b 236 831 241 819 236 824 b 248 842 236 838 241 842 b 260 831 255 842 260 838 b 248 819 260 824 254 819 z m 227 747 b 193 781 207 747 193 760 b 226 812 193 800 207 812 b 260 779 249 812 260 796 b 227 747 260 761 248 747 z m 227 767 b 245 780 237 767 245 771 b 227 792 245 787 238 792 b 208 780 217 792 208 789 b 227 767 208 770 217 767 z m 177 714 b 168 724 172 714 168 718 b 177 734 168 731 172 734 b 187 724 182 734 187 731 b 177 714 187 718 182 714 z m 258 714 l 195 714 l 195 734 l 258 734 z m 227 633 b 193 662 206 633 193 646 b 201 679 193 670 196 675 l 166 679 l 166 699 l 239 699 l 258 699 l 258 682 l 249 680 b 260 661 256 676 260 669 b 227 633 260 646 247 633 z m 227 653 b 244 667 237 653 244 659 b 230 679 244 674 239 679 l 222 679 b 209 667 216 679 209 675 b 227 653 209 658 216 653 z m 232 561 l 195 561 l 195 581 l 229 581 b 243 591 238 581 243 584 b 233 602 243 598 239 602 l 195 602 l 195 621 l 238 621 l 258 622 l 258 604 l 250 603 b 260 583 253 601 260 595 b 232 561 260 570 252 561 z m 210 508 l 195 508 l 195 516 l 183 516 l 178 536 l 195 536 l 195 550 l 210 550 l 210 536 l 233 536 b 243 543 240 536 243 538 l 243 549 l 258 549 b 260 536 259 547 260 542 b 235 516 260 524 252 516 l 210 516 z m 255 454 l 241 457 b 245 474 243 460 245 469 b 241 483 245 480 243 483 b 233 473 237 483 235 481 b 214 455 229 460 222 455 b 193 481 202 455 193 465 b 197 499 193 488 195 495 b 211 496 206 496 201 498 b 207 481 210 492 207 487 b 212 474 207 477 209 474 b 220 484 215 474 217 477 b 239 502 224 496 230 501 b 260 474 251 502 260 492 b 255 454 260 466 258 458 z m 232 381 l 195 381 l 195 401 l 229 401 b 243 411 238 401 243 404 b 233 422 243 418 239 422 l 195 422 l 195 441 l 258 442 l 258 425 l 250 423 b 260 404 253 421 260 415 b 232 381 260 391 252 381 z m 210 328 l 195 328 l 195 336 l 183 336 l 178 356 l 195 356 l 195 370 l 210 370 l 210 356 l 233 356 b 243 363 240 356 243 358 l 243 370 l 258 370 b 260 357 259 368 260 362 b 235 336 260 344 252 336 l 210 336 z m 227 255 b 193 290 207 255 193 269 b 226 321 193 309 207 321 b 260 288 249 321 260 305 b 227 255 260 270 248 255 z m 227 276 b 245 289 237 276 245 280 b 227 301 245 296 238 301 b 208 289 217 301 208 298 b 227 276 208 279 217 276 z m 195 146 l 195 163 l 203 164 l 203 165 b 193 184 199 168 193 173 b 204 201 193 192 198 199 b 193 222 197 207 193 213 b 221 243 193 234 202 243 l 258 243 l 258 224 l 224 224 b 210 215 215 224 210 221 b 221 205 210 208 215 205 l 258 205 l 258 186 l 222 186 b 210 176 215 186 210 183 b 222 166 210 170 216 166 l 258 166 l 258 147 l 215 147 z m 227 68 b 193 102 207 68 193 82 b 226 135 193 122 207 135 b 260 102 249 135 260 119 b 227 68 260 83 248 68 z m 227 89 b 245 102 237 89 245 94 b 227 115 245 110 238 115 b 208 102 217 115 208 111 b 227 89 208 93 217 89 z "},"1":{"ha":237,"x_min":0,"x_max":0,"o":"m 378 0 l 378 1152 l 47 1152 l 47 0 z m 258 986 l 195 986 l 195 1002 l 203 1004 b 193 1023 199 1006 193 1013 b 204 1040 193 1031 197 1038 b 193 1061 197 1046 193 1053 b 221 1082 193 1074 202 1082 l 258 1082 l 258 1063 l 224 1063 b 210 1054 215 1063 210 1060 b 221 1044 210 1047 215 1044 l 258 1044 l 258 1025 l 222 1025 b 210 1016 215 1025 210 1022 b 222 1006 210 1008 216 1006 l 258 1006 z m 227 908 b 193 942 207 908 193 921 b 226 974 193 961 207 974 b 260 941 249 974 260 958 b 227 908 260 922 248 908 z m 227 928 b 245 941 237 928 245 932 b 227 954 245 949 238 954 b 208 941 217 954 208 950 b 227 928 208 932 217 928 z m 227 850 b 193 887 209 850 193 863 b 196 902 193 892 195 898 l 211 899 b 209 888 210 897 209 893 b 227 871 209 878 216 871 b 244 888 238 871 244 879 b 242 899 244 893 243 897 l 256 902 b 260 884 258 899 260 892 b 227 850 260 864 247 850 z m 248 819 b 236 831 241 819 236 824 b 248 842 236 838 241 842 b 260 831 255 842 260 838 b 248 819 260 824 254 819 z m 227 747 b 193 781 207 747 193 760 b 226 812 193 800 207 812 b 260 779 249 812 260 796 b 227 747 260 761 248 747 z m 227 767 b 245 780 237 767 245 771 b 227 792 245 787 238 792 b 208 780 217 792 208 789 b 227 767 208 770 217 767 z m 177 714 b 168 724 172 714 168 718 b 177 734 168 731 172 734 b 187 724 182 734 187 731 b 177 714 187 718 182 714 z m 258 714 l 195 714 l 195 734 l 258 734 z m 227 633 b 193 662 206 633 193 646 b 201 679 193 670 196 675 l 166 679 l 166 699 l 239 699 l 258 699 l 258 682 l 249 680 b 260 661 256 676 260 669 b 227 633 260 646 247 633 z m 227 653 b 244 667 237 653 244 659 b 230 679 244 674 239 679 l 222 679 b 209 667 216 679 209 675 b 227 653 209 658 216 653 z m 232 561 l 195 561 l 195 581 l 229 581 b 243 591 238 581 243 584 b 233 602 243 598 239 602 l 195 602 l 195 621 l 238 621 l 258 622 l 258 604 l 250 603 b 260 583 253 601 260 595 b 232 561 260 570 252 561 z m 210 508 l 195 508 l 195 516 l 183 516 l 178 536 l 195 536 l 195 550 l 210 550 l 210 536 l 233 536 b 243 543 240 536 243 538 l 243 549 l 258 549 b 260 536 259 547 260 542 b 235 516 260 524 252 516 l 210 516 z m 255 454 l 241 457 b 245 474 243 460 245 469 b 241 483 245 480 243 483 b 233 473 237 483 235 481 b 214 455 229 460 222 455 b 193 481 202 455 193 465 b 197 499 193 488 195 495 b 211 496 206 496 201 498 b 207 481 210 492 207 487 b 212 474 207 477 209 474 b 220 484 215 474 217 477 b 239 502 224 496 230 501 b 260 474 251 502 260 492 b 255 454 260 466 258 458 z m 232 381 l 195 381 l 195 401 l 229 401 b 243 411 238 401 243 404 b 233 422 243 418 239 422 l 195 422 l 195 441 l 258 442 l 258 425 l 250 423 b 260 404 253 421 260 415 b 232 381 260 391 252 381 z m 210 328 l 195 328 l 195 336 l 183 336 l 178 356 l 195 356 l 195 370 l 210 370 l 210 356 l 233 356 b 243 363 240 356 243 358 l 243 370 l 258 370 b 260 357 259 368 260 362 b 235 336 260 344 252 336 l 210 336 z m 227 255 b 193 290 207 255 193 269 b 226 321 193 309 207 321 b 260 288 249 321 260 305 b 227 255 260 270 248 255 z m 227 276 b 245 289 237 276 245 280 b 227 301 245 296 238 301 b 208 289 217 301 208 298 b 227 276 208 279 217 276 z m 195 146 l 195 163 l 203 164 l 203 165 b 193 184 199 168 193 173 b 204 201 193 192 198 199 b 193 222 197 207 193 213 b 221 243 193 234 202 243 l 258 243 l 258 224 l 224 224 b 210 215 215 224 210 221 b 221 205 210 208 215 205 l 258 205 l 258 186 l 222 186 b 210 176 215 186 210 183 b 222 166 210 170 216 166 l 258 166 l 258 147 l 215 147 z m 227 68 b 193 102 207 68 193 82 b 226 135 193 122 207 135 b 260 102 249 135 260 119 b 227 68 260 83 248 68 z m 227 89 b 245 102 237 89 245 94 b 227 115 245 110 238 115 b 208 102 217 115 208 111 b 227 89 208 93 217 89 z "},"2":{"ha":423,"x_min":0,"x_max":0,"o":"m 378 0 l 378 1152 l 47 1152 l 47 0 z m 258 986 l 195 986 l 195 1002 l 203 1004 b 193 1023 199 1006 193 1013 b 204 1040 193 1031 197 1038 b 193 1061 197 1046 193 1053 b 221 1082 193 1074 202 1082 l 258 1082 l 258 1063 l 224 1063 b 210 1054 215 1063 210 1060 b 221 1044 210 1047 215 1044 l 258 1044 l 258 1025 l 222 1025 b 210 1016 215 1025 210 1022 b 222 1006 210 1008 216 1006 l 258 1006 z m 227 908 b 193 942 207 908 193 921 b 226 974 193 961 207 974 b 260 941 249 974 260 958 b 227 908 260 922 248 908 z m 227 928 b 245 941 237 928 245 932 b 227 954 245 949 238 954 b 208 941 217 954 208 950 b 227 928 208 932 217 928 z m 227 850 b 193 887 209 850 193 863 b 196 902 193 892 195 898 l 211 899 b 209 888 210 897 209 893 b 227 871 209 878 216 871 b 244 888 238 871 244 879 b 242 899 244 893 243 897 l 256 902 b 260 884 258 899 260 892 b 227 850 260 864 247 850 z m 248 819 b 236 831 241 819 236 824 b 248 842 236 838 241 842 b 260 831 255 842 260 838 b 248 819 260 824 254 819 z m 227 747 b 193 781 207 747 193 760 b 226 812 193 800 207 812 b 260 779 249 812 260 796 b 227 747 260 761 248 747 z m 227 767 b 245 780 237 767 245 771 b 227 792 245 787 238 792 b 208 780 217 792 208 789 b 227 767 208 770 217 767 z m 177 714 b 168 724 172 714 168 718 b 177 734 168 731 172 734 b 187 724 182 734 187 731 b 177 714 187 718 182 714 z m 258 714 l 195 714 l 195 734 l 258 734 z m 227 633 b 193 662 206 633 193 646 b 201 679 193 670 196 675 l 166 679 l 166 699 l 239 699 l 258 699 l 258 682 l 249 680 b 260 661 256 676 260 669 b 227 633 260 646 247 633 z m 227 653 b 244 667 237 653 244 659 b 230 679 244 674 239 679 l 222 679 b 209 667 216 679 209 675 b 227 653 209 658 216 653 z m 232 561 l 195 561 l 195 581 l 229 581 b 243 591 238 581 243 584 b 233 602 243 598 239 602 l 195 602 l 195 621 l 238 621 l 258 622 l 258 604 l 250 603 b 260 583 253 601 260 595 b 232 561 260 570 252 561 z m 210 508 l 195 508 l 195 516 l 183 516 l 178 536 l 195 536 l 195 550 l 210 550 l 210 536 l 233 536 b 243 543 240 536 243 538 l 243 549 l 258 549 b 260 536 259 547 260 542 b 235 516 260 524 252 516 l 210 516 z m 255 454 l 241 457 b 245 474 243 460 245 469 b 241 483 245 480 243 483 b 233 473 237 483 235 481 b 214 455 229 460 222 455 b 193 481 202 455 193 465 b 197 499 193 488 195 495 b 211 496 206 496 201 498 b 207 481 210 492 207 487 b 212 474 207 477 209 474 b 220 484 215 474 217 477 b 239 502 224 496 230 501 b 260 474 251 502 260 492 b 255 454 260 466 258 458 z m 232 381 l 195 381 l 195 401 l 229 401 b 243 411 238 401 243 404 b 233 422 243 418 239 422 l 195 422 l 195 441 l 258 442 l 258 425 l 250 423 b 260 404 253 421 260 415 b 232 381 260 391 252 381 z m 210 328 l 195 328 l 195 336 l 183 336 l 178 356 l 195 356 l 195 370 l 210 370 l 210 356 l 233 356 b 243 363 240 356 243 358 l 243 370 l 258 370 b 260 357 259 368 260 362 b 235 336 260 344 252 336 l 210 336 z m 227 255 b 193 290 207 255 193 269 b 226 321 193 309 207 321 b 260 288 249 321 260 305 b 227 255 260 270 248 255 z m 227 276 b 245 289 237 276 245 280 b 227 301 245 296 238 301 b 208 289 217 301 208 298 b 227 276 208 279 217 276 z m 195 146 l 195 163 l 203 164 l 203 165 b 193 184 199 168 193 173 b 204 201 193 192 198 199 b 193 222 197 207 193 213 b 221 243 193 234 202 243 l 258 243 l 258 224 l 224 224 b 210 215 215 224 210 221 b 221 205 210 208 215 205 l 258 205 l 258 186 l 222 186 b 210 176 215 186 210 183 b 222 166 210 170 216 166 l 258 166 l 258 147 l 215 147 z m 227 68 b 193 102 207 68 193 82 b 226 135 193 122 207 135 b 260 102 249 135 260 119 b 227 68 260 83 248 68 z m 227 89 b 245 102 237 89 245 94 b 227 115 245 110 238 115 b 208 102 217 115 208 111 b 227 89 208 93 217 89 z "},"3":{"ha":486,"x_min":0,"x_max":0,"o":"m 378 0 l 378 1152 l 47 1152 l 47 0 z m 258 986 l 195 986 l 195 1002 l 203 1004 b 193 1023 199 1006 193 1013 b 204 1040 193 1031 197 1038 b 193 1061 197 1046 193 1053 b 221 1082 193 1074 202 1082 l 258 1082 l 258 1063 l 224 1063 b 210 1054 215 1063 210 1060 b 221 1044 210 1047 215 1044 l 258 1044 l 258 1025 l 222 1025 b 210 1016 215 1025 210 1022 b 222 1006 210 1008 216 1006 l 258 1006 z m 227 908 b 193 942 207 908 193 921 b 226 974 193 961 207 974 b 260 941 249 974 260 958 b 227 908 260 922 248 908 z m 227 928 b 245 941 237 928 245 932 b 227 954 245 949 238 954 b 208 941 217 954 208 950 b 227 928 208 932 217 928 z m 227 850 b 193 887 209 850 193 863 b 196 902 193 892 195 898 l 211 899 b 209 888 210 897 209 893 b 227 871 209 878 216 871 b 244 888 238 871 244 879 b 242 899 244 893 243 897 l 256 902 b 260 884 258 899 260 892 b 227 850 260 864 247 850 z m 248 819 b 236 831 241 819 236 824 b 248 842 236 838 241 842 b 260 831 255 842 260 838 b 248 819 260 824 254 819 z m 227 747 b 193 781 207 747 193 760 b 226 812 193 800 207 812 b 260 779 249 812 260 796 b 227 747 260 761 248 747 z m 227 767 b 245 780 237 767 245 771 b 227 792 245 787 238 792 b 208 780 217 792 208 789 b 227 767 208 770 217 767 z m 177 714 b 168 724 172 714 168 718 b 177 734 168 731 172 734 b 187 724 182 734 187 731 b 177 714 187 718 182 714 z m 258 714 l 195 714 l 195 734 l 258 734 z m 227 633 b 193 662 206 633 193 646 b 201 679 193 670 196 675 l 166 679 l 166 699 l 239 699 l 258 699 l 258 682 l 249 680 b 260 661 256 676 260 669 b 227 633 260 646 247 633 z m 227 653 b 244 667 237 653 244 659 b 230 679 244 674 239 679 l 222 679 b 209 667 216 679 209 675 b 227 653 209 658 216 653 z m 232 561 l 195 561 l 195 581 l 229 581 b 243 591 238 581 243 584 b 233 602 243 598 239 602 l 195 602 l 195 621 l 238 621 l 258 622 l 258 604 l 250 603 b 260 583 253 601 260 595 b 232 561 260 570 252 561 z m 210 508 l 195 508 l 195 516 l 183 516 l 178 536 l 195 536 l 195 550 l 210 550 l 210 536 l 233 536 b 243 543 240 536 243 538 l 243 549 l 258 549 b 260 536 259 547 260 542 b 235 516 260 524 252 516 l 210 516 z m 255 454 l 241 457 b 245 474 243 460 245 469 b 241 483 245 480 243 483 b 233 473 237 483 235 481 b 214 455 229 460 222 455 b 193 481 202 455 193 465 b 197 499 193 488 195 495 b 211 496 206 496 201 498 b 207 481 210 492 207 487 b 212 474 207 477 209 474 b 220 484 215 474 217 477 b 239 502 224 496 230 501 b 260 474 251 502 260 492 b 255 454 260 466 258 458 z m 232 381 l 195 381 l 195 401 l 229 401 b 243 411 238 401 243 404 b 233 422 243 418 239 422 l 195 422 l 195 441 l 258 442 l 258 425 l 250 423 b 260 404 253 421 260 415 b 232 381 260 391 252 381 z m 210 328 l 195 328 l 195 336 l 183 336 l 178 356 l 195 356 l 195 370 l 210 370 l 210 356 l 233 356 b 243 363 240 356 243 358 l 243 370 l 258 370 b 260 357 259 368 260 362 b 235 336 260 344 252 336 l 210 336 z m 227 255 b 193 290 207 255 193 269 b 226 321 193 309 207 321 b 260 288 249 321 260 305 b 227 255 260 270 248 255 z m 227 276 b 245 289 237 276 245 280 b 227 301 245 296 238 301 b 208 289 217 301 208 298 b 227 276 208 279 217 276 z m 195 146 l 195 163 l 203 164 l 203 165 b 193 184 199 168 193 173 b 204 201 193 192 198 199 b 193 222 197 207 193 213 b 221 243 193 234 202 243 l 258 243 l 258 224 l 224 224 b 210 215 215 224 210 221 b 221 205 210 208 215 205 l 258 205 l 258 186 l 222 186 b 210 176 215 186 210 183 b 222 166 210 170 216 166 l 258 166 l 258 147 l 215 147 z m 227 68 b 193 102 207 68 193 82 b 226 135 193 122 207 135 b 260 102 249 135 260 119 b 227 68 260 83 248 68 z m 227 89 b 245 102 237 89 245 94 b 227 115 245 110 238 115 b 208 102 217 115 208 111 b 227 89 208 93 217 89 z "},"4":{"ha":465,"x_min":0,"x_max":0,"o":"m 378 0 l 378 1152 l 47 1152 l 47 0 z m 258 986 l 195 986 l 195 1002 l 203 1004 b 193 1023 199 1006 193 1013 b 204 1040 193 1031 197 1038 b 193 1061 197 1046 193 1053 b 221 1082 193 1074 202 1082 l 258 1082 l 258 1063 l 224 1063 b 210 1054 215 1063 210 1060 b 221 1044 210 1047 215 1044 l 258 1044 l 258 1025 l 222 1025 b 210 1016 215 1025 210 1022 b 222 1006 210 1008 216 1006 l 258 1006 z m 227 908 b 193 942 207 908 193 921 b 226 974 193 961 207 974 b 260 941 249 974 260 958 b 227 908 260 922 248 908 z m 227 928 b 245 941 237 928 245 932 b 227 954 245 949 238 954 b 208 941 217 954 208 950 b 227 928 208 932 217 928 z m 227 850 b 193 887 209 850 193 863 b 196 902 193 892 195 898 l 211 899 b 209 888 210 897 209 893 b 227 871 209 878 216 871 b 244 888 238 871 244 879 b 242 899 244 893 243 897 l 256 902 b 260 884 258 899 260 892 b 227 850 260 864 247 850 z m 248 819 b 236 831 241 819 236 824 b 248 842 236 838 241 842 b 260 831 255 842 260 838 b 248 819 260 824 254 819 z m 227 747 b 193 781 207 747 193 760 b 226 812 193 800 207 812 b 260 779 249 812 260 796 b 227 747 260 761 248 747 z m 227 767 b 245 780 237 767 245 771 b 227 792 245 787 238 792 b 208 780 217 792 208 789 b 227 767 208 770 217 767 z m 177 714 b 168 724 172 714 168 718 b 177 734 168 731 172 734 b 187 724 182 734 187 731 b 177 714 187 718 182 714 z m 258 714 l 195 714 l 195 734 l 258 734 z m 227 633 b 193 662 206 633 193 646 b 201 679 193 670 196 675 l 166 679 l 166 699 l 239 699 l 258 699 l 258 682 l 249 680 b 260 661 256 676 260 669 b 227 633 260 646 247 633 z m 227 653 b 244 667 237 653 244 659 b 230 679 244 674 239 679 l 222 679 b 209 667 216 679 209 675 b 227 653 209 658 216 653 z m 232 561 l 195 561 l 195 581 l 229 581 b 243 591 238 581 243 584 b 233 602 243 598 239 602 l 195 602 l 195 621 l 238 621 l 258 622 l 258 604 l 250 603 b 260 583 253 601 260 595 b 232 561 260 570 252 561 z m 210 508 l 195 508 l 195 516 l 183 516 l 178 536 l 195 536 l 195 550 l 210 550 l 210 536 l 233 536 b 243 543 240 536 243 538 l 243 549 l 258 549 b 260 536 259 547 260 542 b 235 516 260 524 252 516 l 210 516 z m 255 454 l 241 457 b 245 474 243 460 245 469 b 241 483 245 480 243 483 b 233 473 237 483 235 481 b 214 455 229 460 222 455 b 193 481 202 455 193 465 b 197 499 193 488 195 495 b 211 496 206 496 201 498 b 207 481 210 492 207 487 b 212 474 207 477 209 474 b 220 484 215 474 217 477 b 239 502 224 496 230 501 b 260 474 251 502 260 492 b 255 454 260 466 258 458 z m 232 381 l 195 381 l 195 401 l 229 401 b 243 411 238 401 243 404 b 233 422 243 418 239 422 l 195 422 l 195 441 l 258 442 l 258 425 l 250 423 b 260 404 253 421 260 415 b 232 381 260 391 252 381 z m 210 328 l 195 328 l 195 336 l 183 336 l 178 356 l 195 356 l 195 370 l 210 370 l 210 356 l 233 356 b 243 363 240 356 243 358 l 243 370 l 258 370 b 260 357 259 368 260 362 b 235 336 260 344 252 336 l 210 336 z m 227 255 b 193 290 207 255 193 269 b 226 321 193 309 207 321 b 260 288 249 321 260 305 b 227 255 260 270 248 255 z m 227 276 b 245 289 237 276 245 280 b 227 301 245 296 238 301 b 208 289 217 301 208 298 b 227 276 208 279 217 276 z m 195 146 l 195 163 l 203 164 l 203 165 b 193 184 199 168 193 173 b 204 201 193 192 198 199 b 193 222 197 207 193 213 b 221 243 193 234 202 243 l 258 243 l 258 224 l 224 224 b 210 215 215 224 210 221 b 221 205 210 208 215 205 l 258 205 l 258 186 l 222 186 b 210 176 215 186 210 183 b 222 166 210 170 216 166 l 258 166 l 258 147 l 215 147 z m 227 68 b 193 102 207 68 193 82 b 226 135 193 122 207 135 b 260 102 249 135 260 119 b 227 68 260 83 248 68 z m 227 89 b 245 102 237 89 245 94 b 227 115 245 110 238 115 b 208 102 217 115 208 111 b 227 89 208 93 217 89 z "},"5":{"ha":534,"x_min":0,"x_max":0,"o":"m 378 0 l 378 1152 l 47 1152 l 47 0 z m 258 986 l 195 986 l 195 1002 l 203 1004 b 193 1023 199 1006 193 1013 b 204 1040 193 1031 197 1038 b 193 1061 197 1046 193 1053 b 221 1082 193 1074 202 1082 l 258 1082 l 258 1063 l 224 1063 b 210 1054 215 1063 210 1060 b 221 1044 210 1047 215 1044 l 258 1044 l 258 1025 l 222 1025 b 210 1016 215 1025 210 1022 b 222 1006 210 1008 216 1006 l 258 1006 z m 227 908 b 193 942 207 908 193 921 b 226 974 193 961 207 974 b 260 941 249 974 260 958 b 227 908 260 922 248 908 z m 227 928 b 245 941 237 928 245 932 b 227 954 245 949 238 954 b 208 941 217 954 208 950 b 227 928 208 932 217 928 z m 227 850 b 193 887 209 850 193 863 b 196 902 193 892 195 898 l 211 899 b 209 888 210 897 209 893 b 227 871 209 878 216 871 b 244 888 238 871 244 879 b 242 899 244 893 243 897 l 256 902 b 260 884 258 899 260 892 b 227 850 260 864 247 850 z m 248 819 b 236 831 241 819 236 824 b 248 842 236 838 241 842 b 260 831 255 842 260 838 b 248 819 260 824 254 819 z m 227 747 b 193 781 207 747 193 760 b 226 812 193 800 207 812 b 260 779 249 812 260 796 b 227 747 260 761 248 747 z m 227 767 b 245 780 237 767 245 771 b 227 792 245 787 238 792 b 208 780 217 792 208 789 b 227 767 208 770 217 767 z m 177 714 b 168 724 172 714 168 718 b 177 734 168 731 172 734 b 187 724 182 734 187 731 b 177 714 187 718 182 714 z m 258 714 l 195 714 l 195 734 l 258 734 z m 227 633 b 193 662 206 633 193 646 b 201 679 193 670 196 675 l 166 679 l 166 699 l 239 699 l 258 699 l 258 682 l 249 680 b 260 661 256 676 260 669 b 227 633 260 646 247 633 z m 227 653 b 244 667 237 653 244 659 b 230 679 244 674 239 679 l 222 679 b 209 667 216 679 209 675 b 227 653 209 658 216 653 z m 232 561 l 195 561 l 195 581 l 229 581 b 243 591 238 581 243 584 b 233 602 243 598 239 602 l 195 602 l 195 621 l 238 621 l 258 622 l 258 604 l 250 603 b 260 583 253 601 260 595 b 232 561 260 570 252 561 z m 210 508 l 195 508 l 195 516 l 183 516 l 178 536 l 195 536 l 195 550 l 210 550 l 210 536 l 233 536 b 243 543 240 536 243 538 l 243 549 l 258 549 b 260 536 259 547 260 542 b 235 516 260 524 252 516 l 210 516 z m 255 454 l 241 457 b 245 474 243 460 245 469 b 241 483 245 480 243 483 b 233 473 237 483 235 481 b 214 455 229 460 222 455 b 193 481 202 455 193 465 b 197 499 193 488 195 495 b 211 496 206 496 201 498 b 207 481 210 492 207 487 b 212 474 207 477 209 474 b 220 484 215 474 217 477 b 239 502 224 496 230 501 b 260 474 251 502 260 492 b 255 454 260 466 258 458 z m 232 381 l 195 381 l 195 401 l 229 401 b 243 411 238 401 243 404 b 233 422 243 418 239 422 l 195 422 l 195 441 l 258 442 l 258 425 l 250 423 b 260 404 253 421 260 415 b 232 381 260 391 252 381 z m 210 328 l 195 328 l 195 336 l 183 336 l 178 356 l 195 356 l 195 370 l 210 370 l 210 356 l 233 356 b 243 363 240 356 243 358 l 243 370 l 258 370 b 260 357 259 368 260 362 b 235 336 260 344 252 336 l 210 336 z m 227 255 b 193 290 207 255 193 269 b 226 321 193 309 207 321 b 260 288 249 321 260 305 b 227 255 260 270 248 255 z m 227 276 b 245 289 237 276 245 280 b 227 301 245 296 238 301 b 208 289 217 301 208 298 b 227 276 208 279 217 276 z m 195 146 l 195 163 l 203 164 l 203 165 b 193 184 199 168 193 173 b 204 201 193 192 198 199 b 193 222 197 207 193 213 b 221 243 193 234 202 243 l 258 243 l 258 224 l 224 224 b 210 215 215 224 210 221 b 221 205 210 208 215 205 l 258 205 l 258 186 l 222 186 b 210 176 215 186 210 183 b 222 166 210 170 216 166 l 258 166 l 258 147 l 215 147 z m 227 68 b 193 102 207 68 193 82 b 226 135 193 122 207 135 b 260 102 249 135 260 119 b 227 68 260 83 248 68 z m 227 89 b 245 102 237 89 245 94 b 227 115 245 110 238 115 b 208 102 217 115 208 111 b 227 89 208 93 217 89 z "},"6":{"ha":465,"x_min":0,"x_max":0,"o":"m 378 0 l 378 1152 l 47 1152 l 47 0 z m 258 986 l 195 986 l 195 1002 l 203 1004 b 193 1023 199 1006 193 1013 b 204 1040 193 1031 197 1038 b 193 1061 197 1046 193 1053 b 221 1082 193 1074 202 1082 l 258 1082 l 258 1063 l 224 1063 b 210 1054 215 1063 210 1060 b 221 1044 210 1047 215 1044 l 258 1044 l 258 1025 l 222 1025 b 210 1016 215 1025 210 1022 b 222 1006 210 1008 216 1006 l 258 1006 z m 227 908 b 193 942 207 908 193 921 b 226 974 193 961 207 974 b 260 941 249 974 260 958 b 227 908 260 922 248 908 z m 227 928 b 245 941 237 928 245 932 b 227 954 245 949 238 954 b 208 941 217 954 208 950 b 227 928 208 932 217 928 z m 227 850 b 193 887 209 850 193 863 b 196 902 193 892 195 898 l 211 899 b 209 888 210 897 209 893 b 227 871 209 878 216 871 b 244 888 238 871 244 879 b 242 899 244 893 243 897 l 256 902 b 260 884 258 899 260 892 b 227 850 260 864 247 850 z m 248 819 b 236 831 241 819 236 824 b 248 842 236 838 241 842 b 260 831 255 842 260 838 b 248 819 260 824 254 819 z m 227 747 b 193 781 207 747 193 760 b 226 812 193 800 207 812 b 260 779 249 812 260 796 b 227 747 260 761 248 747 z m 227 767 b 245 780 237 767 245 771 b 227 792 245 787 238 792 b 208 780 217 792 208 789 b 227 767 208 770 217 767 z m 177 714 b 168 724 172 714 168 718 b 177 734 168 731 172 734 b 187 724 182 734 187 731 b 177 714 187 718 182 714 z m 258 714 l 195 714 l 195 734 l 258 734 z m 227 633 b 193 662 206 633 193 646 b 201 679 193 670 196 675 l 166 679 l 166 699 l 239 699 l 258 699 l 258 682 l 249 680 b 260 661 256 676 260 669 b 227 633 260 646 247 633 z m 227 653 b 244 667 237 653 244 659 b 230 679 244 674 239 679 l 222 679 b 209 667 216 679 209 675 b 227 653 209 658 216 653 z m 232 561 l 195 561 l 195 581 l 229 581 b 243 591 238 581 243 584 b 233 602 243 598 239 602 l 195 602 l 195 621 l 238 621 l 258 622 l 258 604 l 250 603 b 260 583 253 601 260 595 b 232 561 260 570 252 561 z m 210 508 l 195 508 l 195 516 l 183 516 l 178 536 l 195 536 l 195 550 l 210 550 l 210 536 l 233 536 b 243 543 240 536 243 538 l 243 549 l 258 549 b 260 536 259 547 260 542 b 235 516 260 524 252 516 l 210 516 z m 255 454 l 241 457 b 245 474 243 460 245 469 b 241 483 245 480 243 483 b 233 473 237 483 235 481 b 214 455 229 460 222 455 b 193 481 202 455 193 465 b 197 499 193 488 195 495 b 211 496 206 496 201 498 b 207 481 210 492 207 487 b 212 474 207 477 209 474 b 220 484 215 474 217 477 b 239 502 224 496 230 501 b 260 474 251 502 260 492 b 255 454 260 466 258 458 z m 232 381 l 195 381 l 195 401 l 229 401 b 243 411 238 401 243 404 b 233 422 243 418 239 422 l 195 422 l 195 441 l 258 442 l 258 425 l 250 423 b 260 404 253 421 260 415 b 232 381 260 391 252 381 z m 210 328 l 195 328 l 195 336 l 183 336 l 178 356 l 195 356 l 195 370 l 210 370 l 210 356 l 233 356 b 243 363 240 356 243 358 l 243 370 l 258 370 b 260 357 259 368 260 362 b 235 336 260 344 252 336 l 210 336 z m 227 255 b 193 290 207 255 193 269 b 226 321 193 309 207 321 b 260 288 249 321 260 305 b 227 255 260 270 248 255 z m 227 276 b 245 289 237 276 245 280 b 227 301 245 296 238 301 b 208 289 217 301 208 298 b 227 276 208 279 217 276 z m 195 146 l 195 163 l 203 164 l 203 165 b 193 184 199 168 193 173 b 204 201 193 192 198 199 b 193 222 197 207 193 213 b 221 243 193 234 202 243 l 258 243 l 258 224 l 224 224 b 210 215 215 224 210 221 b 221 205 210 208 215 205 l 258 205 l 258 186 l 222 186 b 210 176 215 186 210 183 b 222 166 210 170 216 166 l 258 166 l 258 147 l 215 147 z m 227 68 b 193 102 207 68 193 82 b 226 135 193 122 207 135 b 260 102 249 135 260 119 b 227 68 260 83 248 68 z m 227 89 b 245 102 237 89 245 94 b 227 115 245 110 238 115 b 208 102 217 115 208 111 b 227 89 208 93 217 89 z "},"7":{"ha":509,"x_min":0,"x_max":0,"o":"m 378 0 l 378 1152 l 47 1152 l 47 0 z m 258 986 l 195 986 l 195 1002 l 203 1004 b 193 1023 199 1006 193 1013 b 204 1040 193 1031 197 1038 b 193 1061 197 1046 193 1053 b 221 1082 193 1074 202 1082 l 258 1082 l 258 1063 l 224 1063 b 210 1054 215 1063 210 1060 b 221 1044 210 1047 215 1044 l 258 1044 l 258 1025 l 222 1025 b 210 1016 215 1025 210 1022 b 222 1006 210 1008 216 1006 l 258 1006 z m 227 908 b 193 942 207 908 193 921 b 226 974 193 961 207 974 b 260 941 249 974 260 958 b 227 908 260 922 248 908 z m 227 928 b 245 941 237 928 245 932 b 227 954 245 949 238 954 b 208 941 217 954 208 950 b 227 928 208 932 217 928 z m 227 850 b 193 887 209 850 193 863 b 196 902 193 892 195 898 l 211 899 b 209 888 210 897 209 893 b 227 871 209 878 216 871 b 244 888 238 871 244 879 b 242 899 244 893 243 897 l 256 902 b 260 884 258 899 260 892 b 227 850 260 864 247 850 z m 248 819 b 236 831 241 819 236 824 b 248 842 236 838 241 842 b 260 831 255 842 260 838 b 248 819 260 824 254 819 z m 227 747 b 193 781 207 747 193 760 b 226 812 193 800 207 812 b 260 779 249 812 260 796 b 227 747 260 761 248 747 z m 227 767 b 245 780 237 767 245 771 b 227 792 245 787 238 792 b 208 780 217 792 208 789 b 227 767 208 770 217 767 z m 177 714 b 168 724 172 714 168 718 b 177 734 168 731 172 734 b 187 724 182 734 187 731 b 177 714 187 718 182 714 z m 258 714 l 195 714 l 195 734 l 258 734 z m 227 633 b 193 662 206 633 193 646 b 201 679 193 670 196 675 l 166 679 l 166 699 l 239 699 l 258 699 l 258 682 l 249 680 b 260 661 256 676 260 669 b 227 633 260 646 247 633 z m 227 653 b 244 667 237 653 244 659 b 230 679 244 674 239 679 l 222 679 b 209 667 216 679 209 675 b 227 653 209 658 216 653 z m 232 561 l 195 561 l 195 581 l 229 581 b 243 591 238 581 243 584 b 233 602 243 598 239 602 l 195 602 l 195 621 l 238 621 l 258 622 l 258 604 l 250 603 b 260 583 253 601 260 595 b 232 561 260 570 252 561 z m 210 508 l 195 508 l 195 516 l 183 516 l 178 536 l 195 536 l 195 550 l 210 550 l 210 536 l 233 536 b 243 543 240 536 243 538 l 243 549 l 258 549 b 260 536 259 547 260 542 b 235 516 260 524 252 516 l 210 516 z m 255 454 l 241 457 b 245 474 243 460 245 469 b 241 483 245 480 243 483 b 233 473 237 483 235 481 b 214 455 229 460 222 455 b 193 481 202 455 193 465 b 197 499 193 488 195 495 b 211 496 206 496 201 498 b 207 481 210 492 207 487 b 212 474 207 477 209 474 b 220 484 215 474 217 477 b 239 502 224 496 230 501 b 260 474 251 502 260 492 b 255 454 260 466 258 458 z m 232 381 l 195 381 l 195 401 l 229 401 b 243 411 238 401 243 404 b 233 422 243 418 239 422 l 195 422 l 195 441 l 258 442 l 258 425 l 250 423 b 260 404 253 421 260 415 b 232 381 260 391 252 381 z m 210 328 l 195 328 l 195 336 l 183 336 l 178 356 l 195 356 l 195 370 l 210 370 l 210 356 l 233 356 b 243 363 240 356 243 358 l 243 370 l 258 370 b 260 357 259 368 260 362 b 235 336 260 344 252 336 l 210 336 z m 227 255 b 193 290 207 255 193 269 b 226 321 193 309 207 321 b 260 288 249 321 260 305 b 227 255 260 270 248 255 z m 227 276 b 245 289 237 276 245 280 b 227 301 245 296 238 301 b 208 289 217 301 208 298 b 227 276 208 279 217 276 z m 195 146 l 195 163 l 203 164 l 203 165 b 193 184 199 168 193 173 b 204 201 193 192 198 199 b 193 222 197 207 193 213 b 221 243 193 234 202 243 l 258 243 l 258 224 l 224 224 b 210 215 215 224 210 221 b 221 205 210 208 215 205 l 258 205 l 258 186 l 222 186 b 210 176 215 186 210 183 b 222 166 210 170 216 166 l 258 166 l 258 147 l 215 147 z m 227 68 b 193 102 207 68 193 82 b 226 135 193 122 207 135 b 260 102 249 135 260 119 b 227 68 260 83 248 68 z m 227 89 b 245 102 237 89 245 94 b 227 115 245 110 238 115 b 208 102 217 115 208 111 b 227 89 208 93 217 89 z "},"8":{"ha":462,"x_min":0,"x_max":0,"o":"m 378 0 l 378 1152 l 47 1152 l 47 0 z m 258 986 l 195 986 l 195 1002 l 203 1004 b 193 1023 199 1006 193 1013 b 204 1040 193 1031 197 1038 b 193 1061 197 1046 193 1053 b 221 1082 193 1074 202 1082 l 258 1082 l 258 1063 l 224 1063 b 210 1054 215 1063 210 1060 b 221 1044 210 1047 215 1044 l 258 1044 l 258 1025 l 222 1025 b 210 1016 215 1025 210 1022 b 222 1006 210 1008 216 1006 l 258 1006 z m 227 908 b 193 942 207 908 193 921 b 226 974 193 961 207 974 b 260 941 249 974 260 958 b 227 908 260 922 248 908 z m 227 928 b 245 941 237 928 245 932 b 227 954 245 949 238 954 b 208 941 217 954 208 950 b 227 928 208 932 217 928 z m 227 850 b 193 887 209 850 193 863 b 196 902 193 892 195 898 l 211 899 b 209 888 210 897 209 893 b 227 871 209 878 216 871 b 244 888 238 871 244 879 b 242 899 244 893 243 897 l 256 902 b 260 884 258 899 260 892 b 227 850 260 864 247 850 z m 248 819 b 236 831 241 819 236 824 b 248 842 236 838 241 842 b 260 831 255 842 260 838 b 248 819 260 824 254 819 z m 227 747 b 193 781 207 747 193 760 b 226 812 193 800 207 812 b 260 779 249 812 260 796 b 227 747 260 761 248 747 z m 227 767 b 245 780 237 767 245 771 b 227 792 245 787 238 792 b 208 780 217 792 208 789 b 227 767 208 770 217 767 z m 177 714 b 168 724 172 714 168 718 b 177 734 168 731 172 734 b 187 724 182 734 187 731 b 177 714 187 718 182 714 z m 258 714 l 195 714 l 195 734 l 258 734 z m 227 633 b 193 662 206 633 193 646 b 201 679 193 670 196 675 l 166 679 l 166 699 l 239 699 l 258 699 l 258 682 l 249 680 b 260 661 256 676 260 669 b 227 633 260 646 247 633 z m 227 653 b 244 667 237 653 244 659 b 230 679 244 674 239 679 l 222 679 b 209 667 216 679 209 675 b 227 653 209 658 216 653 z m 232 561 l 195 561 l 195 581 l 229 581 b 243 591 238 581 243 584 b 233 602 243 598 239 602 l 195 602 l 195 621 l 238 621 l 258 622 l 258 604 l 250 603 b 260 583 253 601 260 595 b 232 561 260 570 252 561 z m 210 508 l 195 508 l 195 516 l 183 516 l 178 536 l 195 536 l 195 550 l 210 550 l 210 536 l 233 536 b 243 543 240 536 243 538 l 243 549 l 258 549 b 260 536 259 547 260 542 b 235 516 260 524 252 516 l 210 516 z m 255 454 l 241 457 b 245 474 243 460 245 469 b 241 483 245 480 243 483 b 233 473 237 483 235 481 b 214 455 229 460 222 455 b 193 481 202 455 193 465 b 197 499 193 488 195 495 b 211 496 206 496 201 498 b 207 481 210 492 207 487 b 212 474 207 477 209 474 b 220 484 215 474 217 477 b 239 502 224 496 230 501 b 260 474 251 502 260 492 b 255 454 260 466 258 458 z m 232 381 l 195 381 l 195 401 l 229 401 b 243 411 238 401 243 404 b 233 422 243 418 239 422 l 195 422 l 195 441 l 258 442 l 258 425 l 250 423 b 260 404 253 421 260 415 b 232 381 260 391 252 381 z m 210 328 l 195 328 l 195 336 l 183 336 l 178 356 l 195 356 l 195 370 l 210 370 l 210 356 l 233 356 b 243 363 240 356 243 358 l 243 370 l 258 370 b 260 357 259 368 260 362 b 235 336 260 344 252 336 l 210 336 z m 227 255 b 193 290 207 255 193 269 b 226 321 193 309 207 321 b 260 288 249 321 260 305 b 227 255 260 270 248 255 z m 227 276 b 245 289 237 276 245 280 b 227 301 245 296 238 301 b 208 289 217 301 208 298 b 227 276 208 279 217 276 z m 195 146 l 195 163 l 203 164 l 203 165 b 193 184 199 168 193 173 b 204 201 193 192 198 199 b 193 222 197 207 193 213 b 221 243 193 234 202 243 l 258 243 l 258 224 l 224 224 b 210 215 215 224 210 221 b 221 205 210 208 215 205 l 258 205 l 258 186 l 222 186 b 210 176 215 186 210 183 b 222 166 210 170 216 166 l 258 166 l 258 147 l 215 147 z m 227 68 b 193 102 207 68 193 82 b 226 135 193 122 207 135 b 260 102 249 135 260 119 b 227 68 260 83 248 68 z m 227 89 b 245 102 237 89 245 94 b 227 115 245 110 238 115 b 208 102 217 115 208 111 b 227 89 208 93 217 89 z "},"9":{"ha":460,"x_min":0,"x_max":0,"o":"m 378 0 l 378 1152 l 47 1152 l 47 0 z m 258 986 l 195 986 l 195 1002 l 203 1004 b 193 1023 199 1006 193 1013 b 204 1040 193 1031 197 1038 b 193 1061 197 1046 193 1053 b 221 1082 193 1074 202 1082 l 258 1082 l 258 1063 l 224 1063 b 210 1054 215 1063 210 1060 b 221 1044 210 1047 215 1044 l 258 1044 l 258 1025 l 222 1025 b 210 1016 215 1025 210 1022 b 222 1006 210 1008 216 1006 l 258 1006 z m 227 908 b 193 942 207 908 193 921 b 226 974 193 961 207 974 b 260 941 249 974 260 958 b 227 908 260 922 248 908 z m 227 928 b 245 941 237 928 245 932 b 227 954 245 949 238 954 b 208 941 217 954 208 950 b 227 928 208 932 217 928 z m 227 850 b 193 887 209 850 193 863 b 196 902 193 892 195 898 l 211 899 b 209 888 210 897 209 893 b 227 871 209 878 216 871 b 244 888 238 871 244 879 b 242 899 244 893 243 897 l 256 902 b 260 884 258 899 260 892 b 227 850 260 864 247 850 z m 248 819 b 236 831 241 819 236 824 b 248 842 236 838 241 842 b 260 831 255 842 260 838 b 248 819 260 824 254 819 z m 227 747 b 193 781 207 747 193 760 b 226 812 193 800 207 812 b 260 779 249 812 260 796 b 227 747 260 761 248 747 z m 227 767 b 245 780 237 767 245 771 b 227 792 245 787 238 792 b 208 780 217 792 208 789 b 227 767 208 770 217 767 z m 177 714 b 168 724 172 714 168 718 b 177 734 168 731 172 734 b 187 724 182 734 187 731 b 177 714 187 718 182 714 z m 258 714 l 195 714 l 195 734 l 258 734 z m 227 633 b 193 662 206 633 193 646 b 201 679 193 670 196 675 l 166 679 l 166 699 l 239 699 l 258 699 l 258 682 l 249 680 b 260 661 256 676 260 669 b 227 633 260 646 247 633 z m 227 653 b 244 667 237 653 244 659 b 230 679 244 674 239 679 l 222 679 b 209 667 216 679 209 675 b 227 653 209 658 216 653 z m 232 561 l 195 561 l 195 581 l 229 581 b 243 591 238 581 243 584 b 233 602 243 598 239 602 l 195 602 l 195 621 l 238 621 l 258 622 l 258 604 l 250 603 b 260 583 253 601 260 595 b 232 561 260 570 252 561 z m 210 508 l 195 508 l 195 516 l 183 516 l 178 536 l 195 536 l 195 550 l 210 550 l 210 536 l 233 536 b 243 543 240 536 243 538 l 243 549 l 258 549 b 260 536 259 547 260 542 b 235 516 260 524 252 516 l 210 516 z m 255 454 l 241 457 b 245 474 243 460 245 469 b 241 483 245 480 243 483 b 233 473 237 483 235 481 b 214 455 229 460 222 455 b 193 481 202 455 193 465 b 197 499 193 488 195 495 b 211 496 206 496 201 498 b 207 481 210 492 207 487 b 212 474 207 477 209 474 b 220 484 215 474 217 477 b 239 502 224 496 230 501 b 260 474 251 502 260 492 b 255 454 260 466 258 458 z m 232 381 l 195 381 l 195 401 l 229 401 b 243 411 238 401 243 404 b 233 422 243 418 239 422 l 195 422 l 195 441 l 258 442 l 258 425 l 250 423 b 260 404 253 421 260 415 b 232 381 260 391 252 381 z m 210 328 l 195 328 l 195 336 l 183 336 l 178 356 l 195 356 l 195 370 l 210 370 l 210 356 l 233 356 b 243 363 240 356 243 358 l 243 370 l 258 370 b 260 357 259 368 260 362 b 235 336 260 344 252 336 l 210 336 z m 227 255 b 193 290 207 255 193 269 b 226 321 193 309 207 321 b 260 288 249 321 260 305 b 227 255 260 270 248 255 z m 227 276 b 245 289 237 276 245 280 b 227 301 245 296 238 301 b 208 289 217 301 208 298 b 227 276 208 279 217 276 z m 195 146 l 195 163 l 203 164 l 203 165 b 193 184 199 168 193 173 b 204 201 193 192 198 199 b 193 222 197 207 193 213 b 221 243 193 234 202 243 l 258 243 l 258 224 l 224 224 b 210 215 215 224 210 221 b 221 205 210 208 215 205 l 258 205 l 258 186 l 222 186 b 210 176 215 186 210 183 b 222 166 210 170 216 166 l 258 166 l 258 147 l 215 147 z m 227 68 b 193 102 207 68 193 82 b 226 135 193 122 207 135 b 260 102 249 135 260 119 b 227 68 260 83 248 68 z m 227 89 b 245 102 237 89 245 94 b 227 115 245 110 238 115 b 208 102 217 115 208 111 b 227 89 208 93 217 89 z "},"\u0000":{"ha":0,"x_min":0,"x_max":0,"o":""},"\u001d":{"ha":0,"x_min":0,"x_max":0,"o":""}," ":{"ha":271,"x_min":0,"x_max":0,"o":""}," ":{"ha":271,"x_min":0,"x_max":0,"o":""},"!":{"ha":245,"x_min":0,"x_max":0,"o":"m 209 134 l 212 139 b 177 299 197 161 177 208 l 177 1012 b 161 1027 177 1019 172 1027 b 141 1021 155 1027 149 1025 l 28 945 l 31 938 l 34 938 b 68 895 64 938 68 908 l 68 420 b 124 211 68 420 69 276 b 209 134 157 172 189 147 z m 127 0 l 207 79 l 127 158 l 49 79 z "},"\"":{"ha":271,"x_min":0,"x_max":0,"o":"m 136 1044 l 20 1003 l 75 777 l 83 780 z m 251 1044 l 136 1003 l 190 777 l 198 780 z "},"#":{"ha":746,"x_min":0,"x_max":0,"o":"m 388 75 l 427 205 b 562 208 477 206 525 208 b 614 205 585 208 603 207 b 673 172 647 202 657 192 l 677 176 b 659 222 672 190 666 206 b 567 313 625 290 602 309 b 517 314 559 313 541 314 l 459 313 l 489 413 l 584 415 b 637 413 607 415 625 414 b 694 380 669 410 679 399 l 699 385 b 681 429 694 399 688 414 b 589 519 647 497 625 516 b 521 521 578 521 554 521 l 553 629 l 532 629 l 500 521 l 325 517 l 359 629 l 337 629 l 303 517 b 113 513 225 515 152 513 b 85 514 99 513 90 513 b 56 528 72 515 62 522 l 51 524 b 136 407 68 479 102 410 b 191 404 146 405 165 404 l 271 406 l 241 309 b 99 307 184 307 133 307 b 63 307 81 307 68 307 b 30 323 47 309 37 317 l 27 321 b 114 200 44 277 79 203 b 167 197 123 198 142 197 l 208 198 l 172 75 l 193 75 l 230 198 l 405 203 l 367 75 z m 263 309 l 292 406 l 467 412 l 437 313 b 263 309 384 312 321 311 z "},"$":{"ha":828,"x_min":0,"x_max":0,"o":"m 420 -83 l 420 11 b 760 347 596 42 760 142 b 420 580 760 522 573 557 l 420 856 b 591 913 482 890 547 913 b 650 820 626 911 650 877 b 646 772 650 806 649 789 l 659 770 b 711 945 681 825 711 897 b 635 1045 711 1007 686 1045 b 420 956 587 1045 503 1011 l 420 1074 l 388 1074 l 388 934 b 157 587 269 846 157 718 b 388 441 157 494 267 463 l 388 114 b 349 113 375 113 362 113 b 108 300 201 113 108 176 b 123 395 108 328 113 360 l 107 406 b 47 218 69 351 47 272 b 293 0 47 105 95 0 b 388 6 324 0 356 2 l 388 -83 z m 388 585 b 223 651 296 597 223 610 b 388 838 223 711 300 785 z m 420 116 l 420 436 b 713 317 564 413 713 399 b 420 116 713 264 637 139 z "},"%":{"ha":576,"x_min":0,"x_max":0,"o":"m 90 -52 l 464 1096 l 444 1096 l 69 -52 z m 107 446 b 235 680 174 566 235 548 l 235 909 b 138 1022 235 974 174 1022 l 33 884 l 33 663 b 107 446 33 556 58 521 z m 144 541 b 96 747 100 595 96 652 l 96 909 l 109 926 b 171 843 136 918 171 890 l 171 764 b 176 595 171 708 172 671 l 176 592 b 144 541 176 558 144 541 z m 410 25 b 538 259 477 145 538 127 l 538 488 b 441 600 538 553 477 600 l 336 463 l 336 242 b 410 25 336 135 361 100 z m 448 119 b 399 326 403 174 399 231 l 399 488 l 412 504 b 474 422 439 496 474 469 l 474 342 b 479 174 474 286 475 249 l 479 171 b 448 119 479 137 448 119 z "},"&":{"ha":530,"x_min":0,"x_max":0,"o":"m 160 0 b 342 158 232 80 301 113 l 359 126 b 486 76 380 93 408 79 l 498 76 b 530 77 509 76 520 77 l 532 83 b 479 126 507 90 498 98 b 256 565 445 178 330 419 b 340 619 283 581 312 599 b 397 749 380 648 397 711 l 397 925 b 231 1045 397 994 293 1045 l 47 898 l 47 770 b 94 632 47 737 68 684 l 288 262 l 288 233 b 286 175 288 216 288 197 l 286 172 b 234 94 286 141 234 94 b 157 321 157 153 157 220 l 157 509 b 47 435 120 484 81 457 l 47 231 b 149 11 47 136 67 81 z m 247 584 b 160 897 212 649 160 721 l 160 924 l 181 942 b 288 854 228 934 288 905 l 287 659 b 247 584 287 599 247 584 z "},"'":{"ha":156,"x_min":0,"x_max":0,"o":"m 136 1044 l 20 1003 l 75 777 l 83 780 z "},"(":{"ha":224,"x_min":0,"x_max":0,"o":"m 215 1080 b 47 951 134 1072 47 1024 l 47 92 b 215 -37 47 19 134 -29 l 217 -30 b 156 41 186 -20 156 1 l 156 1002 b 217 1074 156 1042 186 1063 z "},")":{"ha":224,"x_min":0,"x_max":0,"o":"m -12 1080 l -14 1074 b 47 1002 17 1063 47 1042 l 47 41 b -14 -30 47 1 17 -20 l -12 -37 b 156 92 69 -29 156 19 l 156 951 b -12 1080 156 1024 70 1072 z "},"*":{"ha":271,"x_min":0,"x_max":0,"o":"m 125 1085 l 84 1037 l 125 954 l 165 1037 z m 125 954 l 216 940 l 250 993 l 192 1018 z m 125 954 l 140 863 l 201 848 l 206 911 z m 125 954 l 44 911 l 49 848 l 110 863 z m 125 954 l 58 1018 l 0 993 l 34 940 z "},"+":{"ha":678,"x_min":0,"x_max":0,"o":"m 404 633 l 294 597 l 294 408 l 104 408 l 68 298 l 294 298 l 294 72 l 404 108 l 404 298 l 593 298 l 629 408 l 404 408 z "},",":{"ha":237,"x_min":0,"x_max":0,"o":"m 101 -109 b 220 16 176 -62 220 -32 b 142 158 220 50 197 93 l 68 62 b 124 -34 94 39 124 1 b 98 -104 124 -50 118 -74 z "},"-":{"ha":678,"x_min":0,"x_max":0,"o":"m 104 408 l 68 298 l 593 298 l 629 408 z "},"­":{"ha":678,"x_min":0,"x_max":0,"o":"m 104 408 l 68 298 l 593 298 l 629 408 z "},".":{"ha":237,"x_min":0,"x_max":0,"o":"m 146 158 l 68 79 l 146 0 l 226 79 z "},"/":{"ha":68,"x_min":0,"x_max":0,"o":"m 217 1096 l -266 -52 l -208 -52 l 275 1096 z "},":":{"ha":271,"x_min":0,"x_max":0,"o":"m 147 345 l 68 266 l 147 187 l 226 266 z m 147 514 l 68 435 l 147 357 l 226 435 z "},";":{"ha":271,"x_min":0,"x_max":0,"o":"m 142 514 l 63 435 l 142 357 l 221 435 z m 101 84 b 220 209 176 131 220 161 b 142 351 220 243 197 286 l 68 256 b 124 159 94 232 124 194 b 98 89 124 143 118 119 z "},";":{"ha":271,"x_min":0,"x_max":0,"o":"m 142 514 l 63 435 l 142 357 l 221 435 z m 101 84 b 220 209 176 131 220 161 b 142 351 220 243 197 286 l 68 256 b 124 159 94 232 124 194 b 98 89 124 143 118 119 z "},"<":{"ha":441,"x_min":0,"x_max":0,"o":"m 283 671 l 34 423 l 309 149 l 360 252 l 189 422 l 386 619 z "},"=":{"ha":678,"x_min":0,"x_max":0,"o":"m 104 489 l 68 380 l 593 380 l 629 489 z m 104 326 l 68 216 l 593 216 l 629 326 z "},">":{"ha":441,"x_min":0,"x_max":0,"o":"m 111 671 l 60 568 l 231 397 l 34 200 l 137 149 l 386 396 z "},"?":{"ha":460,"x_min":0,"x_max":0,"o":"m 264 150 b 228 378 240 210 228 304 b 250 488 228 435 235 479 b 336 536 284 506 317 520 b 393 659 391 582 393 659 l 393 932 b 228 1052 393 1001 290 1052 l 7 871 l 10 863 l 14 863 b 47 819 44 863 47 833 l 47 691 l 157 691 l 157 932 l 178 949 b 284 861 225 941 284 912 l 283 585 b 236 496 283 543 281 525 b 121 425 187 468 123 454 b 119 395 120 415 119 406 b 130 309 119 363 124 334 b 264 150 146 227 206 183 z m 184 1 l 264 79 l 184 159 l 106 79 z "},"@":{"ha":911,"x_min":0,"x_max":0,"o":"m 446 0 b 554 15 483 0 519 5 l 568 61 b 446 39 530 47 489 39 b 87 398 247 39 87 199 b 446 756 87 596 247 756 b 804 398 644 756 804 596 b 708 153 804 303 768 217 l 701 159 b 606 395 609 236 606 255 l 606 614 b 441 734 606 682 503 734 l 220 553 l 223 544 l 227 544 b 260 501 257 544 260 514 l 260 305 b 389 74 260 199 300 152 b 524 182 439 129 486 157 b 618 76 547 138 583 109 b 644 53 627 68 635 60 b 844 398 763 121 844 250 b 466 795 844 610 676 785 b 446 796 459 795 452 795 b 47 398 226 796 47 617 b 446 0 47 178 226 0 z m 452 174 b 370 395 376 233 370 294 l 370 613 l 391 631 b 498 543 438 623 498 593 l 496 305 b 507 224 496 273 500 247 b 452 174 502 192 452 174 z "},"A":{"ha":1103,"x_min":0,"x_max":0,"o":"m 346 -104 b 739 256 542 -104 739 26 l 739 434 b 825 416 769 424 798 416 b 926 500 877 416 901 465 l 926 221 b 1040 0 926 125 958 71 l 1122 85 b 1036 281 1040 142 1036 193 l 1036 926 b 829 1046 1036 999 892 1044 l 588 849 l 591 840 l 595 840 b 629 804 622 840 628 819 l 629 541 b 554 467 592 524 566 492 l 558 463 b 608 472 576 470 586 472 b 629 470 615 472 622 471 l 630 208 b 308 -31 630 94 444 -31 b 83 144 180 -31 83 24 b 304 406 83 248 165 347 l 292 425 b 0 199 102 409 0 330 b 346 -104 0 3 234 -104 z m 892 502 b 739 545 839 502 793 530 l 739 910 l 774 939 b 927 855 822 933 927 909 l 926 511 b 892 502 918 507 907 502 z m 461 396 l 530 465 l 461 533 l 394 465 z m 461 239 l 530 309 l 461 377 l 394 309 z "},"B":{"ha":1103,"x_min":0,"x_max":0,"o":"m 345 -104 b 681 62 476 -104 608 -45 b 743 1 697 42 718 22 l 743 0 l 754 13 b 1015 166 836 92 978 120 b 1036 237 1027 184 1036 207 l 1035 559 b 878 671 1035 616 947 656 b 1000 825 946 707 1000 743 l 1000 926 b 810 1046 1000 993 871 1046 l 720 973 b 614 1101 698 1025 667 1051 l 534 1015 l 557 994 b 629 808 625 941 629 891 l 629 205 b 308 -31 625 92 443 -31 b 83 144 180 -31 83 25 b 304 406 83 248 164 347 l 292 425 b 0 200 102 409 0 330 b 345 -104 0 4 233 -104 z m 739 594 l 739 869 b 735 922 739 888 738 906 l 762 944 b 890 855 811 944 890 915 l 890 774 b 829 678 890 755 864 718 l 754 604 z m 739 589 b 745 595 739 593 743 593 z m 808 98 b 739 243 753 142 741 183 l 739 545 l 774 571 b 927 488 821 566 927 542 b 925 378 926 452 925 416 b 930 214 925 323 926 266 l 933 168 b 808 98 933 132 808 98 z m 461 396 l 530 465 l 461 534 l 394 465 z m 461 240 l 530 309 l 461 377 l 394 309 z "},"C":{"ha":780,"x_min":0,"x_max":0,"o":"m 447 -104 b 761 129 588 -104 724 5 l 730 148 b 454 -12 689 45 604 -12 b 85 285 248 -12 85 80 b 840 1039 85 663 840 742 b 805 1156 840 1074 829 1113 l 798 1152 l 798 1148 b 0 317 798 876 0 836 b 447 -104 0 37 184 -104 z "},"D":{"ha":1103,"x_min":0,"x_max":0,"o":"m 346 -104 b 682 62 477 -104 608 -45 b 743 0 698 42 718 22 l 753 11 b 1015 166 835 91 979 120 b 1036 237 1028 184 1036 207 l 1036 926 b 829 1046 1036 999 892 1044 l 726 962 b 614 1101 705 1019 672 1046 l 534 1015 l 557 994 b 629 808 626 941 629 891 l 629 222 b 630 205 629 216 629 210 b 308 -31 626 92 443 -31 b 84 144 180 -31 84 25 b 304 406 84 248 165 347 l 292 425 b 0 200 102 409 0 330 b 346 -104 0 4 234 -104 z m 808 98 b 739 243 753 142 742 183 b 740 257 740 248 740 252 l 740 869 b 738 909 740 883 739 897 l 774 939 b 927 855 822 933 927 910 b 926 629 926 822 926 732 b 930 214 926 465 927 268 l 934 169 b 808 98 934 132 808 98 z m 462 396 l 530 465 l 462 534 l 395 465 z m 462 240 l 530 309 l 462 377 l 395 309 z "},"E":{"ha":949,"x_min":0,"x_max":0,"o":"m 465 -104 b 885 230 719 -104 885 84 l 886 259 b 876 334 886 283 884 309 l 861 332 b 527 29 846 147 689 29 b 146 292 333 29 146 79 b 452 527 146 384 288 527 b 635 495 519 527 562 525 l 687 638 b 550 662 646 656 596 662 b 452 651 517 662 484 659 b 237 888 332 707 267 790 b 307 878 260 883 283 880 b 351 876 321 876 336 876 b 671 928 481 876 572 928 l 694 927 b 873 821 761 921 838 890 l 886 829 l 886 838 b 684 1046 886 950 791 1036 b 654 1048 674 1047 664 1048 b 245 970 519 1048 384 970 b 102 1003 197 970 150 979 b 52 1039 85 1013 68 1025 b 14 1101 33 1058 21 1080 l 0 1093 b 12 1061 3 1082 7 1072 b 391 633 97 830 234 700 b 61 194 205 564 61 383 b 465 -104 61 11 284 -104 z "},"F":{"ha":1036,"x_min":0,"x_max":0,"o":"m 346 -104 b 739 256 542 -104 739 26 l 739 556 l 953 556 b 1034 531 987 556 1009 548 l 1036 534 b 909 660 1034 586 990 660 l 740 660 l 740 814 b 715 930 740 861 732 897 b 1082 879 853 908 989 879 b 1114 880 1093 879 1104 880 b 1315 1088 1219 890 1315 976 l 1315 1098 l 1303 1105 b 1124 1000 1267 1037 1190 1005 l 1097 998 b 531 1051 970 998 698 1051 b 481 1049 513 1051 496 1050 b 321 1006 424 1044 370 1030 b 175 833 241 966 193 898 l 189 826 b 276 924 201 862 228 899 b 457 957 324 947 387 957 b 542 953 484 957 513 956 l 557 939 b 629 753 626 886 629 836 l 629 660 l 556 660 b 472 680 525 660 493 665 l 468 677 b 594 556 471 619 521 556 l 629 556 l 630 208 b 308 -32 630 94 444 -32 b 83 144 180 -32 83 24 b 304 406 83 247 165 347 l 292 424 b 0 199 102 409 0 330 b 346 -104 0 3 234 -104 z m 461 395 l 530 465 l 461 533 l 394 465 z m 461 239 l 530 309 l 461 376 l 394 309 z "},"G":{"ha":882,"x_min":0,"x_max":0,"o":"m 510 -206 b 677 -115 566 -199 629 -169 b 769 162 751 -32 769 64 b 751 444 769 258 751 356 b 813 642 751 519 765 588 b 880 688 831 663 854 679 l 874 701 b 840 704 863 703 851 704 b 687 631 781 704 727 675 b 621 437 637 574 621 508 b 666 68 621 319 665 188 b 454 -12 619 19 551 -12 b 86 285 249 -12 86 80 b 788 1034 86 661 788 741 b 751 1156 788 1070 777 1111 l 743 1152 l 743 1147 b 0 317 743 876 0 836 b 448 -104 0 36 185 -104 b 657 -23 524 -104 599 -72 b 597 -138 647 -64 629 -102 b 505 -192 570 -169 536 -186 z "},"H":{"ha":1098,"x_min":0,"x_max":0,"o":"m 346 -104 b 740 256 542 -104 740 26 l 740 540 b 842 507 778 526 818 507 b 921 566 870 507 900 536 l 921 232 b 1045 0 921 102 983 58 l 1125 86 b 1030 321 1034 163 1030 181 l 1030 1100 l 921 1031 l 921 591 b 902 586 915 588 909 586 b 740 631 880 586 782 625 l 740 869 b 625 1089 740 964 707 1019 l 614 1100 l 534 1015 l 557 994 b 629 807 626 941 629 890 l 630 208 b 308 -31 630 94 444 -31 b 83 144 180 -31 83 24 b 304 406 83 248 165 347 l 292 425 b 0 199 102 409 0 330 b 346 -104 0 3 234 -104 z m 461 396 l 530 465 l 461 533 l 394 465 z m 461 239 l 530 309 l 461 377 l 394 309 z "},"I":{"ha":378,"x_min":0,"x_max":0,"o":"m 326 0 l 406 86 l 383 106 b 311 293 314 159 311 210 b 311 809 311 601 311 490 b 220 1010 311 896 285 949 b 297 989 248 999 275 989 b 413 1105 341 989 408 1043 l 408 1108 b 365 1090 401 1101 387 1090 b 155 1149 322 1090 212 1149 b 0 966 67 1149 0 1016 l 13 960 b 90 1048 14 997 36 1048 b 175 1028 117 1048 146 1040 l 106 955 l 130 935 b 201 747 198 881 201 831 l 201 232 b 315 11 201 136 233 81 z "},"J":{"ha":831,"x_min":0,"x_max":0,"o":"m 548 1008 l 618 1075 l 548 1143 l 480 1075 z m 370 -104 b 764 256 566 -104 764 26 l 764 729 b 836 944 764 826 798 891 b 928 1081 884 983 915 1033 l 915 1088 b 827 991 903 1053 875 1015 b 677 958 779 967 728 958 b 231 1036 527 958 369 1036 b 201 1035 221 1036 211 1036 b 0 827 95 1025 0 939 l 0 817 l 12 810 b 191 916 47 878 124 909 l 215 917 b 578 864 319 917 440 864 b 623 866 592 864 608 865 b 723 885 657 869 690 876 b 652 728 680 846 652 793 l 654 208 b 332 -31 654 94 468 -31 b 107 144 203 -31 107 24 b 328 406 107 248 189 347 l 316 425 b 24 199 126 409 24 330 b 370 -104 24 3 258 -104 z "},"K":{"ha":1085,"x_min":0,"x_max":0,"o":"m 1141 -222 b 1241 -194 1181 -222 1216 -212 l 1233 -170 b 1159 -195 1218 -185 1191 -195 b 1017 37 1031 -195 1017 -85 l 1001 431 b 866 558 1001 515 914 549 b 968 663 906 572 952 605 b 1028 1064 991 747 1008 989 b 1043 1093 1031 1076 1036 1087 l 1036 1100 b 918 1017 989 1093 933 1073 b 863 607 899 946 879 667 b 842 561 857 585 854 577 l 740 561 l 740 869 b 626 1089 740 964 707 1019 l 614 1100 l 534 1015 l 557 994 b 629 807 626 941 629 890 l 630 208 b 308 -31 630 94 445 -31 b 84 144 180 -31 84 24 b 304 406 84 248 165 347 l 292 425 b 0 199 102 409 0 330 b 346 -104 0 3 234 -104 b 740 256 542 -104 740 26 l 740 516 b 891 402 840 516 891 491 l 907 68 b 1141 -222 908 -81 991 -222 z m 462 396 l 530 465 l 462 533 l 395 465 z m 462 239 l 530 309 l 462 377 l 395 309 z "},"L":{"ha":359,"x_min":0,"x_max":0,"o":"m 669 -211 b 893 -124 770 -211 852 -175 l 882 -115 b 747 -157 856 -140 810 -157 b 199 124 523 -157 332 77 b 286 365 277 202 286 293 l 286 848 b 299 942 286 883 291 913 l 298 944 b 327 940 309 941 318 940 b 443 1056 372 940 438 994 l 438 1059 b 395 1041 431 1052 417 1041 b 184 1100 352 1041 242 1100 b 30 917 97 1100 30 966 l 43 911 b 119 999 43 947 66 999 b 217 974 151 999 184 987 b 176 850 193 940 176 899 l 176 848 b 178 603 177 789 178 698 b 176 208 178 413 176 208 b 164 132 176 184 172 157 l 157 132 b 0 36 98 132 41 85 l 7 26 b 91 55 33 43 60 55 b 669 -211 223 55 385 -211 z "},"M":{"ha":1343,"x_min":0,"x_max":0,"o":"m 346 -104 b 739 256 542 -104 739 26 l 740 869 l 739 883 l 791 939 b 898 855 840 934 898 911 b 896 527 897 789 896 664 b 897 0 896 328 897 106 l 1007 83 l 1007 884 l 1059 939 b 1165 855 1107 934 1165 911 l 1165 221 b 1278 0 1165 125 1197 71 l 1361 85 b 1275 281 1279 142 1275 193 l 1275 926 b 1117 1046 1275 994 1173 1046 l 1007 928 b 849 1046 1005 996 905 1046 l 735 924 b 625 1089 724 988 690 1034 l 614 1100 l 534 1015 l 557 994 b 629 807 626 941 629 890 l 630 208 b 308 -31 630 94 444 -31 b 83 144 180 -31 83 24 b 304 406 83 248 165 347 l 292 425 b 0 199 102 409 0 330 b 346 -104 0 3 234 -104 z m 461 396 l 530 465 l 461 533 l 394 465 z m 461 239 l 530 309 l 461 377 l 394 309 z "},"N":{"ha":1103,"x_min":0,"x_max":0,"o":"m 346 -104 b 739 256 542 -104 739 26 l 739 869 b 737 908 739 882 739 896 l 774 939 b 928 855 823 933 928 909 l 926 221 b 1040 0 926 125 959 71 l 1122 85 b 1036 281 1040 142 1036 193 l 1036 926 b 829 1046 1036 999 892 1044 l 726 961 b 625 1089 709 1007 677 1045 l 614 1100 l 534 1015 l 557 994 b 629 811 625 942 629 892 l 630 208 b 308 -31 630 94 444 -31 b 83 144 180 -31 83 24 b 304 406 83 248 165 347 l 292 425 b 0 199 102 409 0 330 b 346 -104 0 3 234 -104 z m 461 396 l 530 465 l 461 533 l 394 465 z m 461 239 l 530 309 l 461 377 l 394 309 z "},"O":{"ha":963,"x_min":0,"x_max":0,"o":"m 435 -103 b 896 328 673 -103 884 68 l 896 339 b 526 871 896 564 580 742 l 511 867 b 508 819 509 850 508 834 b 800 295 508 575 800 481 l 800 287 b 450 -27 791 78 659 -27 l 421 -26 b 127 283 231 -18 127 105 l 128 304 b 530 1024 138 532 530 739 b 494 1174 530 1072 519 1122 l 488 1172 l 488 1169 b 1 342 488 887 16 680 l 0 313 b 412 -102 0 49 168 -92 z "},"P":{"ha":1102,"x_min":0,"x_max":0,"o":"m 346 -104 b 740 256 542 -104 740 26 l 740 339 b 793 305 756 326 775 313 b 1015 455 871 380 987 419 b 1036 525 1028 473 1036 495 l 1035 926 b 829 1046 1035 999 892 1044 l 730 947 b 614 1100 711 1013 676 1042 l 534 1015 l 557 994 b 629 807 626 941 629 890 l 630 208 b 308 -31 630 94 445 -31 b 84 144 180 -31 84 24 b 304 406 84 248 165 347 l 292 425 b 0 199 103 409 0 330 b 346 -104 0 3 234 -104 z m 824 389 b 740 456 801 400 766 430 l 740 869 b 739 903 740 881 739 892 l 774 939 b 927 855 822 933 927 909 b 925 728 926 823 925 777 b 930 503 925 646 927 557 l 930 500 b 934 459 931 486 932 473 l 934 458 b 824 389 934 420 824 389 z m 462 396 l 530 465 l 462 533 l 395 465 z m 462 239 l 530 309 l 462 377 l 395 309 z "},"Q":{"ha":963,"x_min":0,"x_max":0,"o":"m 730 -298 b 846 -271 769 -298 808 -290 b 960 -107 907 -238 956 -180 l 949 -99 b 888 -152 934 -121 913 -139 b 783 -176 854 -169 820 -176 b 496 -99 694 -176 597 -134 b 896 328 709 -72 885 91 l 896 340 b 526 871 896 565 580 742 l 511 867 b 508 819 509 850 508 834 b 801 294 508 574 801 480 l 801 287 b 450 -27 791 78 659 -27 l 421 -26 b 127 284 231 -18 127 106 l 128 304 b 530 1025 138 532 530 739 b 494 1174 530 1072 519 1122 l 488 1172 l 488 1169 b 1 342 488 887 16 680 l 0 313 b 219 -60 0 125 84 1 b 122 -92 187 -65 155 -75 b -9 -231 57 -126 12 -178 l 3 -241 b 79 -163 18 -212 43 -183 b 198 -135 119 -143 159 -135 b 730 -298 375 -135 555 -298 z "},"R":{"ha":1103,"x_min":0,"x_max":0,"o":"m 1255 -168 b 1393 -126 1309 -168 1358 -152 l 1385 -110 b 1297 -138 1364 -125 1333 -138 b 1215 -117 1272 -138 1244 -132 b 913 323 1067 -43 1002 157 l 901 346 b 886 372 896 355 890 364 b 1015 444 942 398 994 418 b 1036 515 1027 462 1036 485 l 1035 926 b 829 1046 1035 999 892 1044 l 730 947 b 625 1089 714 1000 682 1041 l 614 1100 l 534 1015 l 557 994 b 629 811 625 942 629 892 l 630 208 b 308 -31 630 94 444 -31 b 83 144 180 -31 83 24 b 304 406 83 248 165 347 l 292 425 b 0 199 102 409 0 330 b 345 -104 0 3 234 -104 b 739 256 542 -104 739 26 l 739 411 l 771 368 b 1122 -136 861 219 924 -37 b 1255 -168 1166 -158 1212 -168 z m 869 397 b 755 458 839 438 806 458 l 739 458 l 739 869 b 738 903 739 881 739 892 l 774 939 b 927 855 821 933 927 909 b 925 708 926 819 925 765 b 929 492 925 628 926 543 l 933 446 b 869 397 933 427 901 410 z m 461 396 l 530 465 l 461 533 l 394 465 z m 461 239 l 530 309 l 461 377 l 394 309 z "},"S":{"ha":963,"x_min":0,"x_max":0,"o":"m 345 -96 b 899 283 602 -96 899 6 b 262 618 899 607 262 494 l 829 990 b 899 1131 869 1017 899 1067 b 892 1189 899 1149 897 1168 b 849 1141 883 1168 868 1153 l 271 761 b 184 545 194 710 184 635 b 844 250 184 317 844 425 b 411 33 844 186 735 33 b 75 304 227 33 75 145 b 89 389 75 332 79 360 l 71 401 b 0 196 26 342 0 255 b 345 -96 0 73 114 -96 z m 334 -267 l 404 -199 l 334 -131 l 266 -199 z m 490 -267 l 559 -199 l 490 -131 l 422 -199 z "},"T":{"ha":808,"x_min":0,"x_max":0,"o":"m 345 -104 b 739 256 541 -104 739 26 l 739 888 b 917 862 802 873 863 862 b 946 863 927 862 937 863 b 1159 1074 1053 873 1159 960 b 1146 1088 1159 1086 1158 1082 b 957 983 1112 1021 1023 989 b 933 982 949 982 941 982 b 518 1034 824 982 663 1034 b 471 1032 502 1034 487 1034 b 312 989 414 1027 361 1014 b 165 817 232 949 182 881 l 178 810 b 267 907 191 845 218 883 b 423 940 315 931 368 940 b 713 893 517 940 617 915 l 629 825 l 629 208 b 308 -32 629 94 444 -32 b 83 144 180 -32 83 24 b 304 406 83 247 164 347 l 292 425 b 0 199 102 409 0 330 b 345 -104 0 3 233 -104 z m 461 395 l 530 465 l 461 533 l 394 465 z m 461 239 l 530 309 l 461 377 l 394 309 z "},"U":{"ha":1103,"x_min":0,"x_max":0,"o":"m 1050 0 l 1131 86 l 1107 106 b 1036 279 1042 157 1036 204 l 1036 1100 l 925 1031 l 926 232 b 932 169 926 209 928 188 l 932 168 b 808 98 932 131 808 98 b 739 282 742 150 739 200 l 739 686 b 346 1046 739 916 542 1046 l 345 1046 b 0 743 233 1046 0 939 b 292 517 0 612 102 533 l 304 536 b 83 798 165 595 83 695 b 308 974 83 918 180 974 b 629 734 444 974 629 848 l 629 221 b 743 0 629 125 661 71 l 753 11 b 947 122 806 64 888 94 b 1050 0 969 73 1000 47 z "},"V":{"ha":1103,"x_min":0,"x_max":0,"o":"m 743 0 l 753 11 b 1015 166 834 91 978 119 b 1036 237 1028 184 1036 207 l 1036 1100 l 925 1031 l 926 232 b 932 169 926 209 928 188 l 932 168 b 808 98 932 131 808 98 b 739 282 742 150 739 200 l 739 686 b 345 1046 739 916 542 1046 l 344 1046 b 0 743 232 1046 0 938 b 292 517 0 612 102 533 l 304 536 b 83 798 164 595 83 695 b 308 974 83 918 180 974 b 629 734 444 974 629 848 l 629 221 b 743 0 629 125 661 71 z "},"W":{"ha":1400,"x_min":0,"x_max":0,"o":"m 1039 0 b 1048 10 1047 8 1042 4 b 1311 166 1130 91 1274 119 b 1332 237 1324 184 1332 207 l 1332 1100 l 1222 1031 l 1222 232 b 1228 169 1222 209 1224 188 l 1228 168 b 1104 98 1228 131 1104 98 b 1036 237 1051 140 1038 180 l 1036 913 l 926 844 l 926 338 l 926 338 l 926 221 b 930 161 926 199 927 180 b 808 98 918 127 808 98 b 739 282 743 150 739 200 l 739 686 b 346 1046 739 916 542 1046 l 345 1046 b 0 743 233 1046 0 938 b 292 517 0 612 102 533 l 304 536 b 83 798 165 595 83 695 b 308 974 83 918 180 974 b 630 734 444 974 630 848 l 629 221 b 743 0 629 125 661 71 l 754 12 b 943 120 807 63 884 93 b 1039 0 960 78 991 41 z "},"X":{"ha":1085,"x_min":0,"x_max":0,"o":"m 486 1178 b 386 1151 446 1178 411 1168 l 394 1127 b 467 1152 409 1141 435 1152 b 610 930 568 1152 610 1053 l 631 644 b 715 532 631 589 669 553 b 629 449 676 520 635 497 l 630 208 b 308 -31 630 94 444 -31 b 83 144 180 -31 83 24 b 304 406 83 248 165 347 l 292 425 b 0 199 102 409 0 330 b 346 -104 0 3 234 -104 b 739 256 542 -104 739 26 l 739 497 b 745 522 739 507 741 515 b 786 513 758 518 772 515 b 891 402 856 506 891 476 l 907 68 b 1141 -222 907 -81 991 -222 b 1241 -194 1181 -222 1215 -212 l 1233 -170 b 1159 -195 1218 -185 1191 -195 b 1017 37 1031 -195 1017 -85 l 1001 431 b 869 559 1001 503 939 548 b 968 663 908 574 953 606 b 1028 1010 991 747 1008 935 b 1043 1039 1031 1022 1036 1033 l 1036 1046 b 918 963 989 1039 933 1019 b 863 607 899 892 879 667 b 843 562 857 586 854 578 b 741 673 775 571 741 601 l 719 899 b 486 1178 719 1048 635 1178 z m 461 533 l 394 465 l 461 396 l 530 465 z m 461 377 l 394 309 l 461 239 l 530 309 z "},"Y":{"ha":1103,"x_min":0,"x_max":0,"o":"m 643 -249 b 1036 111 839 -249 1036 -119 l 1036 1100 l 928 1032 l 927 317 b 808 261 903 286 808 261 b 739 445 743 313 739 363 l 739 686 b 346 1046 739 916 542 1046 l 345 1046 b 0 743 233 1046 0 938 b 292 517 0 612 102 533 l 304 536 b 84 798 165 595 84 695 b 308 974 84 918 180 974 b 630 734 445 974 630 848 l 629 384 b 743 163 629 288 661 233 l 753 174 b 927 275 801 220 870 250 l 927 63 b 605 -177 927 -52 742 -177 b 381 -1 477 -177 381 -121 b 602 260 381 102 462 201 l 589 279 b 297 54 400 264 297 185 b 643 -249 297 -142 531 -249 z "},"Z":{"ha":1031,"x_min":0,"x_max":0,"o":"m 421 0 b 944 182 499 0 843 182 b 977 169 956 182 968 177 l 983 177 b 857 267 966 231 901 267 b 331 78 751 267 412 78 b 159 438 266 78 159 283 b 317 604 159 581 214 593 l 650 638 b 893 916 785 659 867 796 l 909 934 l 946 988 l 951 997 l 948 1000 b 910 987 940 994 927 987 b 186 1046 867 987 243 1046 b 75 965 146 1046 119 1030 b 43 907 61 945 50 926 l 54 899 b 121 945 65 924 87 945 b 834 886 204 945 746 886 l 842 886 b 631 740 796 811 724 751 l 221 707 b 47 515 122 699 47 604 b 421 0 47 227 279 0 z m 507 323 l 576 391 l 507 459 l 439 391 z "},"[":{"ha":407,"x_min":0,"x_max":0,"o":"m 322 -54 b 431 57 360 -54 406 15 l 427 60 b 390 48 419 54 406 48 b 157 91 348 48 216 90 l 157 985 b 322 950 219 972 277 950 b 431 1062 361 950 408 1020 l 429 1065 b 390 1051 420 1059 408 1051 b 154 1095 347 1051 212 1095 b 47 1020 116 1095 90 1079 l 47 -15 b 89 -10 58 -11 70 -10 b 322 -54 175 -10 262 -54 z "},"\\":{"ha":68,"x_min":0,"x_max":0,"o":"m -171 1096 l -229 1096 l 254 -52 l 312 -52 z "},"]":{"ha":413,"x_min":0,"x_max":0,"o":"m 239 -54 b 345 21 277 -54 304 -38 l 345 1056 b 304 1051 336 1052 323 1051 b 71 1095 218 1051 132 1095 b -37 984 33 1095 -14 1026 l -34 981 b 3 993 -26 987 -14 993 b 236 950 45 993 177 951 l 236 56 b 71 91 174 69 117 91 b -39 -21 33 91 -14 21 l -35 -24 b 3 -10 -28 -18 -14 -10 b 239 -54 46 -10 182 -54 z "},"_":{"ha":610,"x_min":0,"x_max":0,"o":"m 70 109 l 34 0 l 559 0 l 595 109 z "},"a":{"ha":460,"x_min":0,"x_max":0,"o":"m 408 0 l 487 85 b 392 321 395 162 392 181 l 392 625 l 311 625 b 407 796 352 669 390 722 l 302 822 b 190 647 288 743 242 695 b 47 433 129 591 47 531 l 47 231 b 164 11 47 136 83 81 l 176 0 b 310 109 225 56 273 83 b 408 0 334 64 370 34 z m 239 100 b 157 321 163 159 157 220 l 157 435 b 284 597 157 494 212 530 l 283 231 b 293 151 283 200 287 173 b 239 100 288 118 239 100 z "},"b":{"ha":487,"x_min":0,"x_max":0,"o":"m 201 0 l 218 18 b 419 250 326 127 419 116 l 419 587 b 261 707 419 655 317 707 l 157 593 l 157 848 b 254 1081 157 945 193 1015 l 248 1091 b 47 848 189 1067 47 992 l 47 231 b 201 0 47 111 138 58 z m 265 101 b 157 321 186 163 157 165 l 157 547 l 206 599 b 310 515 254 593 310 570 l 310 440 b 319 159 310 345 311 248 l 319 155 b 265 101 319 121 268 102 z "},"c":{"ha":379,"x_min":0,"x_max":0,"o":"m 227 0 l 379 163 l 357 184 l 283 106 b 157 321 157 179 157 220 l 157 586 l 173 599 b 271 542 212 595 256 578 l 370 633 b 228 707 339 677 271 707 l 7 526 l 10 517 l 14 517 b 47 474 44 517 47 487 l 47 231 b 227 0 47 99 160 47 z "},"d":{"ha":460,"x_min":0,"x_max":0,"o":"m 408 0 l 488 85 b 393 321 396 163 393 181 l 393 848 b 489 1081 393 945 428 1015 l 483 1091 b 283 848 425 1067 283 992 l 283 696 b 228 707 264 703 244 707 l 7 526 l 10 517 l 14 517 b 47 474 44 517 47 487 l 47 231 b 164 11 47 136 83 81 l 176 0 b 311 109 226 56 273 83 b 408 0 334 64 371 34 z m 184 729 l 254 796 l 184 865 l 116 796 z m 239 101 b 157 321 163 159 157 220 l 157 586 l 178 604 b 283 528 221 596 274 571 l 283 231 b 294 151 283 200 287 174 b 239 101 289 118 239 101 z "},"e":{"ha":407,"x_min":0,"x_max":0,"o":"m 121 729 l 190 796 l 121 865 l 53 796 z m 277 729 l 347 796 l 277 865 l 209 796 z m 227 0 l 379 163 l 357 184 l 283 106 b 157 311 161 177 157 218 b 352 502 223 334 352 414 b 163 707 352 605 251 707 l 5 529 l 10 517 l 14 517 b 47 474 44 517 47 487 l 47 231 b 227 0 47 106 150 51 z m 157 318 b 157 586 157 496 157 422 b 234 455 203 564 234 507 l 234 454 b 157 318 234 400 192 349 z "},"f":{"ha":305,"x_min":0,"x_max":0,"o":"m 15 -256 b 100 -178 35 -242 66 -218 b 157 31 155 -114 157 31 l 157 614 l 281 614 l 347 688 l 157 688 l 157 840 l 172 853 b 271 796 212 849 256 832 l 370 887 b 227 961 345 924 277 961 l 7 780 l 10 771 l 14 771 b 47 728 44 771 47 741 l 47 688 l -32 688 l -32 614 l 47 614 l 47 -91 b 12 -250 47 -182 27 -228 z "},"g":{"ha":462,"x_min":0,"x_max":0,"o":"m 220 729 l 290 796 l 220 865 l 152 796 z m 184 -383 b 394 -29 280 -382 394 -301 l 394 587 b 228 707 394 655 290 707 l 7 526 l 10 517 l 14 517 b 47 474 44 517 47 487 l 47 231 b 164 11 47 136 83 81 l 176 0 b 285 92 215 43 252 70 l 285 -144 b 184 -349 285 -248 261 -349 b 60 -315 151 -349 118 -347 l 48 -339 b 184 -383 95 -372 134 -383 z m 239 101 b 157 321 163 159 157 220 l 157 586 l 178 604 b 285 515 225 595 285 566 l 285 132 b 239 101 269 111 239 101 z "},"h":{"ha":486,"x_min":0,"x_max":0,"o":"m 276 -256 b 361 -178 296 -242 328 -218 b 418 31 416 -114 418 31 l 418 587 b 259 707 418 655 315 707 l 157 594 l 157 848 b 253 1081 157 945 192 1015 l 247 1091 b 47 848 189 1067 47 992 l 47 0 l 157 0 l 157 548 l 204 599 b 308 515 252 593 308 570 l 309 -91 b 273 -250 309 -182 288 -228 z "},"i":{"ha":225,"x_min":0,"x_max":0,"o":"m 92 729 l 161 796 l 92 865 l 24 796 z m 172 0 l 253 87 b 157 300 165 155 157 183 l 157 673 b 140 688 157 680 152 688 b 121 682 136 688 129 686 l 7 606 l 10 599 l 14 599 b 47 555 44 599 47 569 l 47 231 b 172 0 47 104 110 58 z "},"j":{"ha":225,"x_min":0,"x_max":0,"o":"m 92 729 l 161 796 l 92 865 l 24 796 z m -54 -383 b 157 -29 43 -383 157 -301 l 157 672 b 139 688 157 679 151 688 b 121 682 134 688 128 686 l 7 606 l 10 598 l 14 598 b 47 555 44 598 47 568 l 47 -144 b -53 -349 47 -248 24 -349 z "},"k":{"ha":487,"x_min":0,"x_max":0,"o":"m 277 -256 b 362 -178 297 -242 329 -218 b 419 31 417 -114 419 31 l 419 323 b 294 448 419 401 343 436 b 402 555 335 460 386 493 b 410 617 408 576 410 597 b 402 736 410 659 402 697 b 408 787 402 753 404 770 b 423 817 412 800 417 810 l 416 824 b 298 741 372 808 313 796 b 292 686 294 724 292 705 b 302 541 292 638 302 585 b 297 498 302 526 300 511 b 275 451 291 476 288 469 b 261 452 269 452 264 452 l 158 452 l 157 452 l 157 848 b 253 1081 157 945 192 1015 l 247 1091 b 47 848 189 1067 47 992 l 47 0 l 157 0 l 157 408 l 158 408 b 309 294 258 408 309 382 l 309 -91 b 274 -250 309 -182 290 -228 z "},"l":{"ha":224,"x_min":0,"x_max":0,"o":"m 247 1091 b 47 848 189 1067 47 992 l 47 231 b 172 0 47 102 109 58 l 252 85 b 157 321 160 163 157 181 l 157 848 b 253 1081 157 945 192 1015 z "},"m":{"ha":737,"x_min":0,"x_max":0,"o":"m 304 -117 l 413 0 l 413 586 l 436 605 b 559 515 486 605 559 570 l 559 234 b 684 3 559 106 622 60 l 765 89 b 669 302 677 157 669 185 l 669 587 b 484 707 669 655 555 707 l 393 633 b 228 704 358 675 281 704 l 7 524 l 10 515 l 14 515 b 47 471 44 515 47 485 l 47 0 l 157 0 l 157 584 l 180 602 b 304 513 229 602 304 568 z "},"n":{"ha":480,"x_min":0,"x_max":0,"o":"m 428 0 l 509 87 b 412 321 415 159 412 186 l 412 584 b 227 704 412 652 299 704 l 6 524 l 9 515 l 13 515 b 47 470 45 515 47 483 l 47 0 l 157 0 l 157 584 l 179 602 b 303 513 229 602 303 568 l 303 231 b 428 0 303 104 366 58 z "},"o":{"ha":462,"x_min":0,"x_max":0,"o":"m 142 729 l 212 796 l 142 865 l 74 796 z m 298 729 l 368 796 l 298 865 l 230 796 z m 176 0 b 394 250 291 128 394 109 l 394 587 b 228 707 394 655 290 707 l 7 526 l 10 517 l 14 517 b 47 474 44 517 47 487 l 47 231 b 164 11 47 136 83 81 z m 239 101 b 157 321 163 159 157 220 l 157 586 l 178 604 b 285 515 225 595 285 566 l 285 417 b 294 159 285 330 286 241 l 294 155 b 239 101 294 120 239 101 z "},"p":{"ha":486,"x_min":0,"x_max":0,"o":"m 16 -435 b 100 -357 35 -421 67 -397 b 157 -149 155 -293 157 -149 l 157 37 b 199 0 174 24 181 18 l 217 19 b 418 250 325 127 418 116 l 418 587 b 228 707 418 653 289 707 l 7 526 l 10 517 l 14 517 b 47 474 44 517 47 487 l 47 -270 b 12 -429 47 -361 28 -407 z m 263 101 l 256 106 b 157 235 182 163 161 194 l 157 586 l 179 604 b 308 515 229 604 308 575 b 317 159 309 397 307 272 l 317 155 b 263 101 317 121 266 102 z "},"q":{"ha":462,"x_min":0,"x_max":0,"o":"m 426 -435 l 430 -430 b 394 -270 414 -408 394 -361 l 394 586 b 228 706 394 654 290 706 l 7 526 l 10 517 l 14 517 b 47 473 44 517 47 487 l 47 231 b 164 10 47 135 83 81 l 176 -1 b 285 91 215 43 252 69 l 285 -149 b 341 -358 285 -149 286 -294 b 426 -435 374 -397 406 -422 z m 239 100 b 157 320 163 159 157 220 l 157 586 l 178 603 b 285 515 225 595 285 566 l 285 131 b 239 100 269 111 239 100 z "},"r":{"ha":353,"x_min":0,"x_max":0,"o":"m 157 0 l 157 584 l 173 597 b 271 540 212 592 256 576 l 370 631 b 228 704 339 675 271 704 l 157 646 l 157 673 b 141 688 157 680 152 688 b 121 682 136 688 129 686 l 7 606 l 10 599 l 14 599 b 47 555 44 599 47 569 l 48 0 z "},"s":{"ha":478,"x_min":0,"x_max":0,"o":"m 233 729 l 302 796 l 233 865 l 164 796 z m 190 0 b 431 261 281 77 431 104 b 106 551 431 462 221 489 b 169 538 125 543 146 538 l 186 538 b 418 612 277 547 338 605 l 427 613 b 453 609 437 613 446 611 l 458 617 b 345 693 428 649 397 693 l 333 693 b 93 612 256 686 158 618 l 68 610 b 39 615 59 610 52 612 b 38 606 39 612 39 609 b 37 584 37 600 37 592 b 318 244 37 394 318 418 b 274 95 318 194 311 142 b 121 243 183 102 140 175 l 36 154 b 190 0 51 90 81 22 z "},"t":{"ha":305,"x_min":0,"x_max":0,"o":"m 172 0 l 252 87 b 157 321 159 159 157 186 l 157 614 l 281 614 l 347 688 l 157 688 l 157 943 b 140 959 157 950 151 959 b 121 953 135 959 128 958 l 7 876 l 9 869 l 14 869 b 47 826 43 869 47 840 l 47 688 l -32 688 l -32 614 l 47 614 l 47 232 b 172 0 47 104 109 58 z "},"u":{"ha":465,"x_min":0,"x_max":0,"o":"m 412 0 l 492 87 l 469 106 b 397 293 400 159 397 210 l 397 673 b 380 688 397 680 392 688 b 361 682 375 688 369 686 l 248 606 l 250 599 l 254 599 b 288 555 284 599 288 569 l 288 231 b 292 172 288 210 289 191 l 294 159 l 294 155 b 239 101 294 120 239 101 b 229 106 235 102 233 104 b 157 293 160 159 157 210 l 157 673 b 140 688 157 680 152 688 b 121 682 135 688 129 686 l 7 606 l 10 599 l 14 599 b 47 555 44 599 47 569 l 47 231 b 172 0 47 108 103 64 b 314 111 223 58 274 85 b 412 0 337 66 365 44 z m 143 -168 l 213 -101 l 143 -33 l 75 -101 z m 300 -168 l 369 -101 l 300 -33 l 231 -101 z "},"v":{"ha":462,"x_min":0,"x_max":0,"o":"m 176 0 b 394 250 291 128 394 109 l 394 671 b 378 688 394 678 389 688 b 358 682 372 688 366 686 l 245 606 l 248 599 l 251 599 b 285 555 281 599 285 569 l 285 465 b 294 159 285 360 286 252 l 294 155 b 239 101 294 120 239 101 b 157 321 163 159 157 220 l 157 673 b 140 688 157 680 152 688 b 121 682 136 688 129 686 l 7 606 l 10 599 l 14 599 b 47 555 44 599 47 569 l 47 231 b 164 11 47 136 83 81 z "},"w":{"ha":699,"x_min":0,"x_max":0,"o":"m 338 839 l 408 906 l 338 975 l 271 906 z m 260 729 l 330 796 l 260 865 l 193 796 z m 416 729 l 486 796 l 416 865 l 349 796 z m 412 0 b 631 250 528 128 631 109 l 631 671 b 614 688 631 678 626 688 b 595 682 610 688 603 686 l 481 606 l 484 599 l 488 599 b 522 555 518 599 522 569 l 522 549 b 531 159 522 419 520 276 l 531 155 b 476 101 531 120 476 101 b 394 321 400 159 394 220 l 394 673 b 378 688 394 680 389 688 b 358 682 372 688 366 686 l 244 606 l 247 599 l 250 599 b 285 554 282 599 285 567 l 285 231 b 294 159 285 204 288 180 l 294 156 b 239 101 294 120 239 101 b 157 321 163 159 157 220 l 157 673 b 140 688 157 680 151 688 b 121 682 135 688 128 686 l 7 606 l 10 599 l 14 599 b 47 554 45 599 47 568 l 47 231 b 163 11 47 136 83 81 l 175 0 b 313 110 227 57 275 85 b 412 0 338 66 366 43 z "},"x":{"ha":481,"x_min":0,"x_max":0,"o":"m 60 -117 l 170 0 l 170 336 b 175 361 170 346 172 353 b 233 353 189 357 220 354 b 303 241 303 345 303 315 l 303 233 b 428 0 303 107 363 60 l 509 87 b 413 271 435 147 416 167 b 281 398 413 342 351 387 b 380 502 321 413 365 445 b 410 672 391 543 401 608 l 410 675 b 395 688 410 684 403 688 b 374 682 387 688 378 686 l 260 606 l 264 598 l 268 598 b 293 574 285 598 293 591 l 292 560 l 275 446 b 255 401 271 423 266 416 b 172 512 212 407 179 439 l 156 673 b 139 688 155 684 148 688 b 121 682 133 688 126 686 l 7 606 l 10 598 b 21 600 14 599 18 600 b 56 571 38 600 53 591 l 62 483 b 146 371 67 427 100 391 b 60 288 107 359 66 336 z "},"y":{"ha":462,"x_min":0,"x_max":0,"o":"m 184 -383 b 395 -29 281 -382 395 -301 l 395 672 b 377 688 395 679 389 688 b 359 682 372 688 366 686 l 245 606 l 248 598 l 252 598 b 286 555 282 598 286 568 l 286 132 b 240 101 271 112 240 101 b 157 321 174 147 157 204 l 157 673 b 140 688 157 680 152 688 b 121 682 135 688 129 686 l 7 606 l 10 599 l 14 599 b 47 555 44 599 47 569 l 47 231 b 176 0 47 109 108 64 b 286 92 216 43 253 70 l 286 -144 b 185 -349 286 -248 262 -349 b 60 -315 151 -349 119 -347 l 50 -339 b 184 -383 96 -372 136 -383 z "},"z":{"ha":529,"x_min":0,"x_max":0,"o":"m 283 0 b 517 227 378 0 517 106 b 516 249 517 235 517 241 l 479 273 b 481 256 480 268 481 262 b 308 100 481 184 392 100 b 151 222 250 100 151 136 b 471 563 151 416 423 419 b 532 646 498 587 518 620 l 528 651 b 469 634 514 644 490 634 b 198 693 424 634 258 693 b 59 584 156 693 93 650 l 64 578 b 129 593 81 587 98 593 l 134 593 b 391 534 220 590 326 537 b 34 208 266 458 34 432 b 283 0 34 29 179 0 z m 317 205 l 387 272 l 317 340 l 249 272 z "},"{":{"ha":235,"x_min":0,"x_max":0,"o":"m -1 522 b 157 621 74 522 151 578 b 161 715 160 640 161 674 b 159 902 161 772 159 842 b 163 1002 159 943 161 979 b 228 1074 169 1042 198 1065 l 227 1078 b 55 951 153 1066 63 1015 b 47 578 47 895 47 621 b -1 522 47 539 -1 522 z m 234 -36 l 235 -33 b 163 41 202 -24 170 -1 b 159 142 161 65 159 101 b 161 329 159 202 161 272 b 157 423 161 370 160 405 b -1 522 151 465 74 522 b 47 463 -1 522 47 507 b 55 93 47 420 47 150 b 234 -36 66 14 151 -29 z "},"|":{"ha":102,"x_min":0,"x_max":0,"o":"m 0 1096 l 0 -52 l 59 -52 l 58 1096 z "},"}":{"ha":254,"x_min":0,"x_max":0,"o":"m 235 522 b 187 578 235 522 187 539 b 180 951 187 621 187 895 b 8 1078 172 1015 81 1066 l 7 1074 b 71 1002 37 1065 66 1042 b 75 902 74 979 75 943 b 73 715 75 842 73 772 b 78 621 73 674 75 640 b 235 522 83 578 161 522 z m 1 -36 b 180 93 84 -29 169 14 b 187 463 187 150 187 420 b 235 522 187 507 235 522 b 78 423 161 522 83 465 b 73 329 75 405 73 370 b 75 142 73 272 75 202 b 71 41 75 101 74 65 b 0 -33 65 -1 33 -24 z "},"¡":{"ha":271,"x_min":0,"x_max":0,"o":"m 69 -326 l 235 -214 b 209 -218 224 -218 216 -219 b 192 -212 201 -218 196 -216 b 182 -200 188 -209 184 -205 b 179 -185 180 -195 180 -190 b 178 -174 178 -180 178 -176 b 178 -168 178 -170 178 -168 l 178 243 b 177 266 178 243 178 250 b 171 323 176 281 174 300 b 154 392 167 346 161 369 b 121 452 146 415 135 435 b 47 522 93 484 68 507 b 16 543 26 536 16 543 b 24 535 16 543 18 540 b 42 509 29 530 35 522 b 61 454 50 496 56 478 b 69 364 66 431 69 401 z m 143 501 l 218 597 b 115 719 191 644 156 684 b 33 633 92 688 64 660 b 143 501 76 602 113 557 z "},"¢":{"ha":378,"x_min":0,"x_max":0,"o":"m 189 -65 l 210 -56 l 210 12 b 226 0 215 7 221 4 l 378 164 l 356 185 l 283 106 b 210 157 251 125 227 141 l 210 591 b 271 543 236 583 261 567 l 370 633 b 228 707 338 677 270 707 l 210 692 l 210 772 l 189 762 l 189 675 l 7 526 l 10 517 l 14 517 b 47 474 44 517 47 488 l 47 232 b 189 25 47 122 124 67 z m 189 178 b 157 321 157 218 157 258 l 157 587 l 172 599 b 189 597 178 599 183 597 z "},"£":{"ha":583,"x_min":0,"x_max":0,"o":"m 136 0 b 507 43 208 0 425 43 b 576 6 536 43 560 28 l 583 12 b 553 64 576 28 566 46 b 443 144 509 128 482 144 b 175 114 406 144 275 127 b 273 235 217 144 273 194 l 273 245 b 262 368 273 272 269 317 l 417 368 l 453 477 l 250 477 b 229 692 239 562 229 645 b 269 777 229 728 246 758 b 397 717 319 775 366 760 l 494 806 b 346 874 456 844 409 870 b 209 747 305 806 260 790 b 128 614 144 694 128 662 b 139 477 128 591 133 539 l 37 477 l 0 368 l 151 368 b 171 154 161 271 171 178 b 161 112 171 136 166 121 b 60 102 113 106 74 102 b 22 115 43 102 30 109 l 19 112 b 128 0 43 69 90 0 z "},"¤":{"ha":576,"x_min":0,"x_max":0,"o":"m 137 125 l 176 164 b 283 136 208 145 244 136 b 395 167 324 136 362 146 l 434 130 l 537 182 l 472 245 b 500 353 491 277 500 313 b 471 461 500 392 490 429 l 538 528 l 435 580 l 394 539 b 283 569 360 559 323 569 b 176 541 245 569 209 559 l 140 578 l 37 527 l 98 464 b 66 353 77 431 66 393 b 98 241 67 311 77 274 l 34 176 z m 283 218 b 229 229 264 218 246 221 l 217 235 l 199 246 b 161 296 183 259 170 276 b 149 353 153 313 149 332 b 194 454 149 393 163 427 l 205 463 b 216 469 209 465 212 467 l 229 476 b 283 487 245 484 264 487 b 332 478 301 487 317 484 l 339 475 b 397 426 363 465 382 448 l 401 420 b 418 353 412 399 418 377 b 407 298 418 333 414 315 l 404 292 l 394 274 l 385 262 b 334 227 371 247 353 235 b 283 218 318 220 301 218 z "},"¥":{"ha":644,"x_min":0,"x_max":0,"o":"m 205 0 b 285 73 225 14 254 38 b 341 283 340 138 341 283 l 341 329 l 467 329 l 504 438 l 341 438 l 341 476 l 467 476 l 504 585 l 341 585 l 341 677 l 555 989 l 497 1001 l 294 704 b 52 966 248 760 73 935 b 41 1002 43 979 41 992 l 37 1004 b 0 883 20 972 0 920 b 8 852 0 871 3 860 b 232 611 35 808 164 688 l 232 585 l 87 585 l 51 476 l 232 476 l 232 438 l 87 438 l 51 329 l 232 329 l 232 161 b 199 6 232 76 214 30 z "},"©":{"ha":911,"x_min":0,"x_max":0,"o":"m 446 0 b 844 398 665 0 844 178 b 446 796 844 617 665 796 b 47 398 227 796 47 617 b 446 0 47 178 227 0 z m 446 39 b 87 398 248 39 87 199 b 446 756 87 596 248 756 b 804 398 644 756 804 596 b 446 39 804 199 644 39 z m 479 54 l 632 214 l 610 234 l 536 157 b 410 366 410 229 410 269 l 410 625 l 426 637 b 524 582 465 633 509 616 l 623 670 b 481 741 592 713 524 741 l 260 566 l 263 557 l 267 557 b 300 515 297 557 300 528 l 300 279 b 479 54 300 151 413 100 z "},"®":{"ha":501,"x_min":0,"x_max":0,"o":"m 251 585 b 501 835 389 585 501 696 b 251 1085 501 973 389 1085 b 0 835 113 1085 0 973 b 251 585 0 696 113 585 z m 251 625 b 41 835 135 625 41 719 b 251 1044 41 951 135 1044 b 460 835 367 1044 460 951 b 251 625 460 719 367 625 z m 326 657 b 378 674 343 657 363 663 l 377 677 b 353 685 372 677 362 677 b 269 778 337 697 297 748 b 319 853 298 798 319 809 b 315 1003 319 879 315 1003 b 248 1036 305 1022 279 1036 l 245 1035 b 140 950 215 998 180 973 l 141 946 b 157 926 155 946 157 932 l 157 741 b 137 661 157 692 144 670 l 138 660 b 182 699 147 666 164 678 b 207 760 198 718 205 744 b 290 667 238 728 266 684 b 326 657 298 661 311 657 z m 266 781 b 251 795 260 787 255 791 b 208 814 239 804 228 813 l 208 983 b 218 984 210 983 213 984 b 269 960 234 984 264 978 l 269 920 b 273 810 269 889 269 847 l 273 805 b 266 781 273 793 269 785 z "},"°":{"ha":290,"x_min":0,"x_max":0,"o":"m 145 1085 b 43 1043 105 1085 71 1071 b 0 941 14 1015 0 981 b 43 838 0 901 14 867 b 145 796 71 810 105 796 b 247 838 184 796 218 810 b 290 941 275 867 290 901 b 247 1043 290 981 275 1015 b 145 1085 218 1071 184 1085 z m 145 1044 b 218 1014 174 1044 198 1034 b 248 941 238 994 248 969 b 218 867 248 912 238 888 b 145 837 198 847 174 837 b 71 867 116 837 92 847 b 41 941 52 888 41 912 b 71 1014 41 969 52 994 b 145 1044 92 1034 116 1044 z "},"±":{"ha":678,"x_min":0,"x_max":0,"o":"m 404 690 l 294 654 l 294 465 l 104 465 l 68 355 l 294 355 l 294 129 l 404 165 l 404 355 l 593 355 l 629 465 l 404 465 z m 104 110 l 68 0 l 593 0 l 629 110 z "},"¿":{"ha":460,"x_min":0,"x_max":0,"o":"m 176 570 b 212 341 200 510 212 415 b 191 232 212 285 205 240 b 104 183 156 214 123 199 b 47 61 49 138 47 61 l 47 -213 b 212 -332 47 -281 151 -332 l 433 -152 l 430 -143 l 426 -143 b 393 -100 396 -143 393 -113 l 393 28 l 283 28 l 283 -212 l 262 -230 b 156 -142 215 -221 156 -193 l 157 135 b 204 223 157 177 159 195 b 319 294 253 252 317 265 b 321 324 320 304 321 314 b 311 411 321 355 316 386 b 176 570 294 493 234 536 z m 256 719 l 176 640 l 256 561 l 334 640 z "},"À":{"ha":1103,"x_min":0,"x_max":0,"o":"m 755 1180 l 921 1038 l 859 1180 z m 346 -104 b 739 256 542 -104 739 26 l 739 434 b 825 416 769 424 798 416 b 926 500 877 416 901 465 l 926 221 b 1040 0 926 125 958 71 l 1122 85 b 1036 281 1040 142 1036 193 l 1036 926 b 829 1046 1036 999 892 1044 l 588 849 l 591 840 l 595 840 b 629 804 622 840 628 819 l 629 541 b 554 467 592 524 566 492 l 558 463 b 608 472 576 470 586 472 b 629 470 615 472 622 471 l 630 208 b 308 -31 630 94 444 -31 b 83 144 180 -31 83 24 b 304 406 83 248 165 347 l 292 425 b 0 199 102 409 0 330 b 346 -104 0 3 234 -104 z m 892 502 b 739 545 839 502 793 530 l 739 910 l 774 939 b 927 855 822 933 927 909 l 926 511 b 892 502 918 507 907 502 z m 461 396 l 530 465 l 461 533 l 394 465 z m 461 239 l 530 309 l 461 377 l 394 309 z "},"Á":{"ha":1103,"x_min":0,"x_max":0,"o":"m 799 1180 l 736 1038 l 903 1180 z m 346 -104 b 739 256 542 -104 739 26 l 739 434 b 825 416 769 424 798 416 b 926 500 877 416 901 465 l 926 221 b 1040 0 926 125 958 71 l 1122 85 b 1036 281 1040 142 1036 193 l 1036 926 b 829 1046 1036 999 892 1044 l 588 849 l 591 840 l 595 840 b 629 804 622 840 628 819 l 629 541 b 554 467 592 524 566 492 l 558 463 b 608 472 576 470 586 472 b 629 470 615 472 622 471 l 630 208 b 308 -31 630 94 444 -31 b 83 144 180 -31 83 24 b 304 406 83 248 165 347 l 292 425 b 0 199 102 409 0 330 b 346 -104 0 3 234 -104 z m 892 502 b 739 545 839 502 793 530 l 739 910 l 774 939 b 927 855 822 933 927 909 l 926 511 b 892 502 918 507 907 502 z m 461 396 l 530 465 l 461 533 l 394 465 z m 461 239 l 530 309 l 461 377 l 394 309 z "},"Â":{"ha":1103,"x_min":0,"x_max":0,"o":"m 739 1059 l 857 1119 l 974 1059 l 857 1210 z m 346 -104 b 739 256 542 -104 739 26 l 739 434 b 825 416 769 424 798 416 b 926 500 877 416 901 465 l 926 221 b 1040 0 926 125 958 71 l 1122 85 b 1036 281 1040 142 1036 193 l 1036 926 b 829 1046 1036 999 892 1044 l 588 849 l 591 840 l 595 840 b 629 804 622 840 628 819 l 629 541 b 554 467 592 524 566 492 l 558 463 b 608 472 576 470 586 472 b 629 470 615 472 622 471 l 630 208 b 308 -31 630 94 444 -31 b 83 144 180 -31 83 24 b 304 406 83 248 165 347 l 292 425 b 0 199 102 409 0 330 b 346 -104 0 3 234 -104 z m 892 502 b 739 545 839 502 793 530 l 739 910 l 774 939 b 927 855 822 933 927 909 l 926 511 b 892 502 918 507 907 502 z m 461 396 l 530 465 l 461 533 l 394 465 z m 461 239 l 530 309 l 461 377 l 394 309 z "},"Ã":{"ha":1103,"x_min":0,"x_max":0,"o":"m 838 1195 b 756 1059 793 1195 766 1149 b 780 1095 763 1073 771 1085 b 812 1108 789 1103 799 1108 b 842 1101 822 1108 833 1106 b 872 1084 852 1096 863 1090 b 901 1067 882 1078 892 1072 b 931 1059 911 1062 921 1059 b 1015 1195 981 1059 1009 1105 b 991 1158 1008 1179 1000 1167 b 960 1144 983 1149 972 1144 b 927 1152 948 1144 938 1147 b 896 1171 917 1158 906 1164 b 867 1187 886 1177 877 1183 b 838 1195 857 1192 847 1195 z m 346 -104 b 739 256 542 -104 739 26 l 739 434 b 825 416 769 424 798 416 b 926 500 877 416 901 465 l 926 221 b 1040 0 926 125 958 71 l 1122 85 b 1036 281 1040 142 1036 193 l 1036 926 b 829 1046 1036 999 892 1044 l 588 849 l 591 840 l 595 840 b 629 804 622 840 628 819 l 629 541 b 554 467 592 524 566 492 l 558 463 b 608 472 576 470 586 472 b 629 470 615 472 622 471 l 630 208 b 308 -31 630 94 444 -31 b 83 144 180 -31 83 24 b 304 406 83 248 165 347 l 292 425 b 0 199 102 409 0 330 b 346 -104 0 3 234 -104 z m 892 502 b 739 545 839 502 793 530 l 739 910 l 774 939 b 927 855 822 933 927 909 l 926 511 b 892 502 918 507 907 502 z m 461 396 l 530 465 l 461 533 l 394 465 z m 461 239 l 530 309 l 461 377 l 394 309 z "},"Ä":{"ha":1103,"x_min":0,"x_max":0,"o":"m 785 1217 l 706 1137 l 785 1059 l 864 1137 z m 864 1137 l 943 1059 l 1022 1137 l 943 1217 z m 346 -104 b 739 256 542 -104 739 26 l 739 434 b 825 416 769 424 798 416 b 926 500 877 416 901 465 l 926 221 b 1040 0 926 125 958 71 l 1122 85 b 1036 281 1040 142 1036 193 l 1036 926 b 829 1046 1036 999 892 1044 l 588 849 l 591 840 l 595 840 b 629 804 622 840 628 819 l 629 541 b 554 467 592 524 566 492 l 558 463 b 608 472 576 470 586 472 b 629 470 615 472 622 471 l 630 208 b 308 -31 630 94 444 -31 b 83 144 180 -31 83 24 b 304 406 83 248 165 347 l 292 425 b 0 199 102 409 0 330 b 346 -104 0 3 234 -104 z m 892 502 b 739 545 839 502 793 530 l 739 910 l 774 939 b 927 855 822 933 927 909 l 926 511 b 892 502 918 507 907 502 z m 461 396 l 530 465 l 461 533 l 394 465 z m 461 239 l 530 309 l 461 377 l 394 309 z "},"Å":{"ha":1103,"x_min":0,"x_max":0,"o":"m 857 1182 b 808 1162 838 1182 821 1175 b 787 1114 794 1149 787 1133 b 808 1065 787 1095 794 1079 b 857 1045 821 1052 838 1045 b 905 1065 875 1045 891 1052 b 925 1114 918 1079 925 1095 b 905 1162 925 1133 918 1149 b 857 1182 891 1175 875 1182 z m 857 1146 b 880 1137 865 1146 873 1143 b 889 1114 886 1131 889 1123 b 880 1090 889 1105 886 1097 b 857 1081 873 1084 865 1081 b 833 1090 847 1081 840 1084 b 823 1114 827 1097 823 1105 b 833 1137 823 1123 827 1131 b 857 1146 840 1143 847 1146 z m 346 -104 b 739 256 542 -104 739 26 l 739 434 b 825 416 769 424 798 416 b 926 500 877 416 901 465 l 926 221 b 1040 0 926 125 958 71 l 1122 85 b 1036 281 1040 142 1036 193 l 1036 926 b 829 1046 1036 999 892 1044 l 588 849 l 591 840 l 595 840 b 629 804 622 840 628 819 l 629 541 b 554 467 592 524 566 492 l 558 463 b 608 472 576 470 586 472 b 629 470 615 472 622 471 l 630 208 b 308 -31 630 94 444 -31 b 83 144 180 -31 83 24 b 304 406 83 248 165 347 l 292 425 b 0 199 102 409 0 330 b 346 -104 0 3 234 -104 z m 892 502 b 739 545 839 502 793 530 l 739 910 l 774 939 b 927 855 822 933 927 909 l 926 511 b 892 502 918 507 907 502 z m 461 396 l 530 465 l 461 533 l 394 465 z m 461 239 l 530 309 l 461 377 l 394 309 z "},"Æ":{"ha":1814,"x_min":0,"x_max":0,"o":"m 1330 -104 b 1750 230 1584 -104 1750 84 l 1750 255 b 1741 334 1750 281 1749 307 l 1726 332 b 1392 29 1710 147 1554 29 b 1121 85 1291 29 1193 43 l 1122 85 b 1035 286 1038 143 1035 195 l 1035 366 b 1317 528 1082 446 1192 528 b 1500 495 1384 528 1426 525 l 1552 638 b 1415 662 1510 656 1461 662 b 1317 651 1381 662 1349 659 b 1102 888 1197 707 1131 790 b 1171 878 1124 883 1147 880 b 1215 876 1186 876 1201 876 b 1535 928 1346 876 1436 928 l 1560 927 b 1738 821 1626 921 1703 890 l 1750 829 l 1750 839 b 1549 1046 1750 951 1655 1037 b 1520 1048 1539 1047 1529 1048 b 1109 970 1385 1048 1249 970 b 992 991 1070 970 1031 976 b 944 1017 978 1002 962 1010 l 917 1039 b 878 1101 898 1058 886 1080 l 865 1093 b 876 1061 868 1082 871 1072 l 886 1037 b 829 1046 864 1042 844 1046 l 739 972 b 663 910 726 963 708 947 l 588 849 l 591 840 l 595 840 b 629 804 621 840 627 819 l 629 541 b 554 467 592 524 566 492 l 557 463 b 608 472 576 470 585 472 b 629 470 614 472 622 471 l 629 208 b 308 -31 629 94 444 -31 b 83 144 180 -31 83 25 b 304 406 83 248 164 347 l 292 425 b 0 199 102 409 0 330 b 345 -104 0 3 233 -104 b 739 256 541 -104 739 26 l 739 434 b 824 416 768 424 798 416 b 926 500 877 416 901 465 l 925 221 b 926 194 925 212 926 203 b 1330 -104 926 11 1149 -104 z m 892 502 b 739 545 838 502 793 530 l 739 910 l 774 939 b 927 855 822 933 927 909 l 926 511 b 892 502 918 507 907 502 z m 1035 476 l 1035 790 b 1255 633 1101 718 1175 667 b 1035 476 1170 601 1093 545 z m 461 396 l 530 465 l 461 533 l 394 465 z m 461 239 l 530 309 l 461 377 l 394 309 z "},"Œ":{"ha":1698,"x_min":0,"x_max":0,"o":"m 1214 -104 b 1634 230 1468 -104 1634 84 l 1634 250 b 1624 334 1634 277 1634 306 l 1610 332 b 1276 29 1594 147 1438 29 b 895 292 1082 29 895 79 b 1201 528 895 384 1036 528 b 1384 495 1268 528 1310 525 l 1436 638 b 1299 662 1394 656 1345 662 b 1201 651 1265 662 1233 659 b 987 884 1082 706 1017 788 b 1039 878 1004 882 1021 879 b 1083 876 1054 876 1069 876 b 1403 928 1214 876 1304 928 l 1428 927 b 1606 821 1493 921 1571 890 l 1618 829 l 1618 839 b 1416 1046 1618 951 1522 1037 l 1388 1048 b 977 970 1253 1048 1116 970 b 897 979 951 970 924 972 b 749 1093 844 1002 794 1037 l 746 1101 l 733 1093 b 789 989 743 1058 762 1022 b 1139 633 876 802 1000 693 b 882 425 1034 593 941 518 b 526 871 819 610 573 759 l 512 867 b 509 819 509 850 509 834 b 801 295 509 575 801 481 l 801 287 b 451 -27 791 78 659 -27 l 422 -26 b 128 283 231 -18 128 105 l 129 305 b 530 1024 139 532 530 739 b 494 1174 530 1072 519 1122 l 488 1172 l 488 1169 b 1 342 488 887 16 679 l 0 313 b 412 -102 0 49 168 -92 l 433 -103 b 828 106 595 -103 745 -24 b 1214 -104 884 -25 1063 -104 z "},"Ç":{"ha":780,"x_min":0,"x_max":0,"o":"m 805 1155 l 798 1152 b 0 317 806 877 0 839 b 389 -102 0 58 157 -81 l 355 -182 b 462 -243 428 -170 462 -194 b 401 -321 462 -276 439 -302 l 404 -326 b 524 -231 473 -313 524 -275 b 434 -136 524 -169 479 -136 b 433 -136 433 -136 433 -136 l 446 -104 b 447 -104 447 -104 447 -104 b 761 129 588 -104 724 4 l 730 148 b 454 -12 689 45 604 -12 b 85 285 248 -12 85 80 b 805 1155 85 708 1030 756 z "},"È":{"ha":949,"x_min":0,"x_max":0,"o":"m 389 1187 l 555 1045 l 493 1187 z m 465 -104 b 885 230 719 -104 885 84 l 886 259 b 876 334 886 283 884 309 l 861 332 b 527 29 846 147 689 29 b 146 292 333 29 146 79 b 452 527 146 384 288 527 b 635 495 519 527 562 525 l 687 638 b 550 662 646 656 596 662 b 452 651 517 662 484 659 b 237 888 332 707 267 790 b 307 878 260 883 283 880 b 351 876 321 876 336 876 b 671 928 481 876 572 928 l 694 927 b 873 821 761 921 838 890 l 886 829 l 886 838 b 684 1046 886 950 791 1036 b 654 1048 674 1047 664 1048 b 245 970 519 1048 384 970 b 102 1003 197 970 150 979 b 52 1039 85 1013 68 1025 b 14 1101 33 1058 21 1080 l 0 1093 b 12 1061 3 1082 7 1072 b 391 633 97 830 234 700 b 61 194 205 564 61 383 b 465 -104 61 11 284 -104 z "},"É":{"ha":949,"x_min":0,"x_max":0,"o":"m 465 -104 b 885 230 719 -104 885 84 l 886 259 b 876 334 886 283 884 309 l 861 332 b 527 29 846 147 689 29 b 146 292 333 29 146 79 b 452 527 146 384 288 527 b 635 495 519 527 562 525 l 687 638 b 550 662 646 656 596 662 b 452 651 517 662 484 659 b 237 888 332 707 267 790 b 307 878 260 883 283 880 b 351 876 321 876 336 876 b 671 928 481 876 572 928 l 694 927 b 873 821 761 921 838 890 l 886 829 l 886 838 b 684 1046 886 950 791 1036 b 654 1048 674 1047 664 1048 b 245 970 519 1048 384 970 b 102 1003 197 970 150 979 b 52 1039 85 1013 68 1025 b 14 1101 33 1058 21 1080 l 0 1093 b 12 1061 3 1082 7 1072 b 391 633 97 830 234 700 b 61 194 205 564 61 383 b 465 -104 61 11 284 -104 z m 528 1187 l 465 1045 l 632 1187 z "},"Ê":{"ha":949,"x_min":0,"x_max":0,"o":"m 433 1059 l 551 1119 l 669 1059 l 551 1210 z m 465 -104 b 885 230 719 -104 885 84 l 886 259 b 876 334 886 283 884 309 l 861 332 b 527 29 846 147 689 29 b 146 292 333 29 146 79 b 452 527 146 384 288 527 b 635 495 519 527 562 525 l 687 638 b 550 662 646 656 596 662 b 452 651 517 662 484 659 b 237 888 332 707 267 790 b 307 878 260 883 283 880 b 351 876 321 876 336 876 b 671 928 481 876 572 928 l 694 927 b 873 821 761 921 838 890 l 886 829 l 886 838 b 684 1046 886 950 791 1036 b 654 1048 674 1047 664 1048 b 245 970 519 1048 384 970 b 102 1003 197 970 150 979 b 52 1039 85 1013 68 1025 b 14 1101 33 1058 21 1080 l 0 1093 b 12 1061 3 1082 7 1072 b 391 633 97 830 234 700 b 61 194 205 564 61 383 b 465 -104 61 11 284 -104 z "},"Ë":{"ha":949,"x_min":0,"x_max":0,"o":"m 446 1217 l 367 1137 l 446 1059 l 525 1137 z m 525 1137 l 604 1059 l 683 1137 l 604 1217 z m 465 -104 b 885 230 719 -104 885 84 l 886 259 b 876 334 886 283 884 309 l 861 332 b 527 29 846 147 689 29 b 146 292 333 29 146 79 b 452 527 146 384 288 527 b 635 495 519 527 562 525 l 687 638 b 550 662 646 656 596 662 b 452 651 517 662 484 659 b 237 888 332 707 267 790 b 307 878 260 883 283 880 b 351 876 321 876 336 876 b 671 928 481 876 572 928 l 694 927 b 873 821 761 921 838 890 l 886 829 l 886 838 b 684 1046 886 950 791 1036 b 654 1048 674 1047 664 1048 b 245 970 519 1048 384 970 b 102 1003 197 970 150 979 b 52 1039 85 1013 68 1025 b 14 1101 33 1058 21 1080 l 0 1093 b 12 1061 3 1082 7 1072 b 391 633 97 830 234 700 b 61 194 205 564 61 383 b 465 -104 61 11 284 -104 z "},"Ì":{"ha":378,"x_min":0,"x_max":0,"o":"m 151 1261 l 317 1120 l 256 1261 z m 326 0 l 406 86 l 383 106 b 311 293 314 159 311 210 b 311 809 311 601 311 490 b 220 1010 311 896 285 949 b 297 989 248 999 275 989 b 413 1105 341 989 408 1043 l 408 1108 b 365 1090 401 1101 387 1090 b 155 1149 322 1090 212 1149 b 0 966 67 1149 0 1016 l 13 960 b 90 1048 14 997 36 1048 b 175 1028 117 1048 146 1040 l 106 955 l 130 935 b 201 747 198 881 201 831 l 201 232 b 315 11 201 136 233 81 z "},"Í":{"ha":378,"x_min":0,"x_max":0,"o":"m 236 1302 l 174 1160 l 340 1302 z m 326 0 l 406 86 l 383 106 b 311 293 314 159 311 210 b 311 809 311 601 311 490 b 220 1010 311 896 285 949 b 297 989 248 999 275 989 b 413 1105 341 989 408 1043 l 408 1108 b 365 1090 401 1101 387 1090 b 155 1149 322 1090 212 1149 b 0 966 67 1149 0 1016 l 13 960 b 90 1048 14 997 36 1048 b 175 1028 117 1048 146 1040 l 106 955 l 130 935 b 201 747 198 881 201 831 l 201 232 b 315 11 201 136 233 81 z "},"Î":{"ha":378,"x_min":0,"x_max":0,"o":"m 121 1168 l 239 1228 l 357 1168 l 239 1319 z m 326 0 l 406 86 l 383 106 b 311 293 314 159 311 210 b 311 809 311 601 311 490 b 220 1010 311 896 285 949 b 297 989 248 999 275 989 b 413 1105 341 989 408 1043 l 408 1108 b 365 1090 401 1101 387 1090 b 155 1149 322 1090 212 1149 b 0 966 67 1149 0 1016 l 13 960 b 90 1048 14 997 36 1048 b 175 1028 117 1048 146 1040 l 106 955 l 130 935 b 201 747 198 881 201 831 l 201 232 b 315 11 201 136 233 81 z "},"Ï":{"ha":378,"x_min":0,"x_max":0,"o":"m 154 1325 l 75 1246 l 154 1167 l 233 1246 z m 233 1246 l 312 1167 l 391 1246 l 312 1325 z m 326 0 l 406 86 l 383 106 b 311 293 314 159 311 210 b 311 809 311 601 311 490 b 220 1010 311 896 285 949 b 297 989 248 999 275 989 b 413 1105 341 989 408 1043 l 408 1108 b 365 1090 401 1101 387 1090 b 155 1149 322 1090 212 1149 b 0 966 67 1149 0 1016 l 13 960 b 90 1048 14 997 36 1048 b 175 1028 117 1048 146 1040 l 106 955 l 130 935 b 201 747 198 881 201 831 l 201 232 b 315 11 201 136 233 81 z "},"Ð":{"ha":1197,"x_min":0,"x_max":0,"o":"m 345 -104 b 681 62 476 -104 608 -45 b 743 1 697 42 718 22 l 753 11 b 1015 166 834 91 978 120 b 1036 237 1028 184 1036 207 l 1035 926 b 829 1046 1035 999 892 1044 l 706 946 b 614 1046 682 985 656 1007 l 534 960 l 557 940 b 629 753 625 886 629 837 l 629 570 l 585 570 l 549 460 l 629 460 l 629 205 b 308 -31 625 92 443 -31 b 83 144 180 -31 83 25 b 304 406 83 248 164 347 l 292 425 b 0 200 102 409 0 330 b 345 -104 0 4 233 -104 z m 808 98 b 739 243 753 142 741 183 l 739 460 l 857 460 l 894 570 l 739 570 l 739 814 b 727 901 739 847 735 876 l 774 939 b 927 855 821 933 927 910 b 925 635 926 823 925 735 b 930 214 925 470 927 269 l 933 168 b 808 98 933 132 808 98 z m 461 396 l 530 465 l 461 534 l 394 465 z m 461 240 l 530 309 l 461 377 l 394 309 z "},"Ñ":{"ha":1103,"x_min":0,"x_max":0,"o":"m 810 1222 b 729 1086 766 1222 739 1177 b 753 1122 736 1100 744 1112 b 785 1135 762 1131 772 1135 b 815 1128 795 1135 806 1133 b 845 1111 825 1123 836 1117 b 874 1094 854 1105 865 1099 b 904 1086 884 1089 894 1086 b 988 1222 954 1086 982 1132 b 964 1185 981 1206 973 1194 b 932 1171 956 1176 945 1171 b 900 1179 921 1171 911 1174 b 869 1198 890 1185 879 1191 b 840 1215 859 1204 850 1210 b 810 1222 830 1219 820 1222 z m 346 -104 b 739 256 542 -104 739 26 l 739 869 b 737 908 739 882 739 896 l 774 939 b 928 855 823 933 928 909 l 926 221 b 1040 0 926 125 959 71 l 1122 85 b 1036 281 1040 142 1036 193 l 1036 926 b 829 1046 1036 999 892 1044 l 726 961 b 625 1089 709 1007 677 1045 l 614 1100 l 534 1015 l 557 994 b 629 811 625 942 629 892 l 630 208 b 308 -31 630 94 444 -31 b 83 144 180 -31 83 24 b 304 406 83 248 165 347 l 292 425 b 0 199 102 409 0 330 b 346 -104 0 3 234 -104 z m 461 396 l 530 465 l 461 533 l 394 465 z m 461 239 l 530 309 l 461 377 l 394 309 z "},"Ò":{"ha":963,"x_min":0,"x_max":0,"o":"m 402 1289 l 568 1147 l 507 1289 z m 435 -103 b 896 328 673 -103 884 68 l 896 339 b 526 871 896 564 580 742 l 511 867 b 508 819 509 850 508 834 b 800 295 508 575 800 481 l 800 287 b 450 -27 791 78 659 -27 l 421 -26 b 127 283 231 -18 127 105 l 128 304 b 530 1024 138 532 530 739 b 494 1174 530 1072 519 1122 l 488 1172 l 488 1169 b 1 342 488 887 16 680 l 0 313 b 412 -102 0 49 168 -92 z "},"Ó":{"ha":963,"x_min":0,"x_max":0,"o":"m 568 1289 l 464 1289 l 402 1147 z m 435 -103 b 896 328 673 -103 884 68 l 896 339 b 526 871 896 564 580 742 l 511 867 b 508 819 509 850 508 834 b 800 295 508 575 800 481 l 800 287 b 450 -27 791 78 659 -27 l 421 -26 b 127 283 231 -18 127 105 l 128 304 b 530 1024 138 532 530 739 b 494 1174 530 1072 519 1122 l 488 1172 l 488 1169 b 1 342 488 887 16 680 l 0 313 b 412 -102 0 49 168 -92 z "},"Ô":{"ha":963,"x_min":0,"x_max":0,"o":"m 379 1133 l 497 1194 l 614 1133 l 497 1284 z m 435 -103 b 896 328 673 -103 884 68 l 896 339 b 526 871 896 564 580 742 l 511 867 b 508 819 509 850 508 834 b 800 295 508 575 800 481 l 800 287 b 450 -27 791 78 659 -27 l 421 -26 b 127 283 231 -18 127 105 l 128 304 b 530 1024 138 532 530 739 b 494 1174 530 1072 519 1122 l 488 1172 l 488 1169 b 1 342 488 887 16 680 l 0 313 b 412 -102 0 49 168 -92 z "},"Õ":{"ha":963,"x_min":0,"x_max":0,"o":"m 471 1290 b 390 1154 427 1290 399 1244 b 414 1190 397 1168 405 1180 b 446 1203 422 1198 433 1203 b 476 1196 456 1203 467 1201 b 506 1179 486 1191 496 1185 b 535 1162 515 1173 526 1166 b 565 1154 545 1157 555 1154 b 649 1290 615 1154 643 1200 b 625 1253 642 1274 634 1262 b 593 1239 616 1244 606 1239 b 561 1247 582 1239 572 1242 b 530 1265 551 1253 540 1259 b 500 1282 520 1272 511 1278 b 471 1290 491 1287 481 1290 z m 435 -103 b 896 328 673 -103 884 68 l 896 339 b 526 871 896 564 580 742 l 511 867 b 508 819 509 850 508 834 b 800 295 508 575 800 481 l 800 287 b 450 -27 791 78 659 -27 l 421 -26 b 127 283 231 -18 127 105 l 128 304 b 530 1024 138 532 530 739 b 494 1174 530 1072 519 1122 l 488 1172 l 488 1169 b 1 342 488 887 16 680 l 0 313 b 412 -102 0 49 168 -92 z "},"Ö":{"ha":963,"x_min":0,"x_max":0,"o":"m 425 1291 l 347 1212 l 425 1133 l 505 1212 z m 505 1212 l 583 1133 l 663 1212 l 583 1291 z m 435 -103 b 896 328 673 -103 884 68 l 896 339 b 526 871 896 564 580 742 l 511 867 b 508 819 509 850 508 834 b 800 295 508 575 800 481 l 800 287 b 450 -27 791 78 659 -27 l 421 -26 b 127 283 231 -18 127 105 l 128 304 b 530 1024 138 532 530 739 b 494 1174 530 1072 519 1122 l 488 1172 l 488 1169 b 1 342 488 887 16 680 l 0 313 b 412 -102 0 49 168 -92 z "},"×":{"ha":543,"x_min":0,"x_max":0,"o":"m 137 564 l 34 513 l 194 353 l 34 193 l 137 141 l 271 275 l 406 141 l 509 193 l 349 353 l 509 513 l 406 564 l 271 430 z "},"Ø":{"ha":963,"x_min":0,"x_max":0,"o":"m 187 -152 l 225 -62 b 411 -102 280 -86 342 -100 l 434 -103 b 896 328 673 -103 884 68 l 896 338 b 583 789 896 520 692 669 l 671 996 l 612 996 l 545 836 b 525 871 536 848 530 860 l 511 866 b 508 819 509 850 508 834 b 513 762 508 799 510 780 l 215 52 b 127 283 157 107 127 186 l 128 304 b 530 1023 138 532 530 738 b 494 1173 530 1072 519 1121 l 488 1171 l 488 1168 b 1 342 488 886 16 679 l 0 311 b 177 -38 0 146 67 28 l 129 -152 z m 450 -28 l 421 -27 b 259 18 357 -24 303 -8 l 540 685 b 800 295 616 532 800 442 l 800 286 b 450 -28 791 77 659 -28 z "},"Ù":{"ha":1103,"x_min":0,"x_max":0,"o":"m 714 1166 l 880 1025 l 819 1166 z m 1050 0 l 1131 86 l 1107 106 b 1036 279 1042 157 1036 204 l 1036 1100 l 925 1031 l 926 232 b 932 169 926 209 928 188 l 932 168 b 808 98 932 131 808 98 b 739 282 742 150 739 200 l 739 686 b 346 1046 739 916 542 1046 l 345 1046 b 0 743 233 1046 0 939 b 292 517 0 612 102 533 l 304 536 b 83 798 165 595 83 695 b 308 974 83 918 180 974 b 629 734 444 974 629 848 l 629 221 b 743 0 629 125 661 71 l 753 11 b 947 122 806 64 888 94 b 1050 0 969 73 1000 47 z "},"Ú":{"ha":1103,"x_min":0,"x_max":0,"o":"m 935 1166 l 830 1166 l 768 1025 z m 1050 0 l 1131 86 l 1107 106 b 1036 279 1042 157 1036 204 l 1036 1100 l 925 1031 l 926 232 b 932 169 926 209 928 188 l 932 168 b 808 98 932 131 808 98 b 739 282 742 150 739 200 l 739 686 b 346 1046 739 916 542 1046 l 345 1046 b 0 743 233 1046 0 939 b 292 517 0 612 102 533 l 304 536 b 83 798 165 595 83 695 b 308 974 83 918 180 974 b 629 734 444 974 629 848 l 629 221 b 743 0 629 125 661 71 l 753 11 b 947 122 806 64 888 94 b 1050 0 969 73 1000 47 z "},"Û":{"ha":1103,"x_min":0,"x_max":0,"o":"m 705 1045 l 823 1105 l 940 1045 l 823 1196 z m 1050 0 l 1131 86 l 1107 106 b 1036 279 1042 157 1036 204 l 1036 1100 l 925 1031 l 926 232 b 932 169 926 209 928 188 l 932 168 b 808 98 932 131 808 98 b 739 282 742 150 739 200 l 739 686 b 346 1046 739 916 542 1046 l 345 1046 b 0 743 233 1046 0 939 b 292 517 0 612 102 533 l 304 536 b 83 798 165 595 83 695 b 308 974 83 918 180 974 b 629 734 444 974 629 848 l 629 221 b 743 0 629 125 661 71 l 753 11 b 947 122 806 64 888 94 b 1050 0 969 73 1000 47 z "},"Ü":{"ha":1103,"x_min":0,"x_max":0,"o":"m 758 1196 l 679 1117 l 758 1038 l 837 1117 z m 837 1117 l 916 1038 l 995 1117 l 916 1196 z m 1050 0 l 1131 86 l 1107 106 b 1036 279 1042 157 1036 204 l 1036 1100 l 925 1031 l 926 232 b 932 169 926 209 928 188 l 932 168 b 808 98 932 131 808 98 b 739 282 742 150 739 200 l 739 686 b 346 1046 739 916 542 1046 l 345 1046 b 0 743 233 1046 0 939 b 292 517 0 612 102 533 l 304 536 b 83 798 165 595 83 695 b 308 974 83 918 180 974 b 629 734 444 974 629 848 l 629 221 b 743 0 629 125 661 71 l 753 11 b 947 122 806 64 888 94 b 1050 0 969 73 1000 47 z "},"Ý":{"ha":1153,"x_min":0,"x_max":0,"o":"m 935 1166 l 830 1166 l 768 1025 z m 643 -249 b 1036 111 839 -249 1036 -119 l 1036 1100 l 928 1032 l 927 317 b 808 261 903 286 808 261 b 739 445 743 313 739 363 l 739 686 b 346 1046 739 916 542 1046 l 345 1046 b 0 743 233 1046 0 938 b 292 517 0 612 102 533 l 304 536 b 84 798 165 595 84 695 b 308 974 84 918 180 974 b 630 734 445 974 630 848 l 629 384 b 743 163 629 288 661 233 l 753 174 b 927 275 801 220 870 250 l 927 63 b 605 -177 927 -52 742 -177 b 381 -1 477 -177 381 -121 b 602 260 381 102 462 201 l 589 279 b 297 54 400 264 297 185 b 643 -249 297 -142 531 -249 z "},"Ÿ":{"ha":1153,"x_min":0,"x_max":0,"o":"m 758 1210 l 679 1131 l 758 1052 l 837 1131 z m 837 1131 l 916 1052 l 995 1131 l 916 1210 z m 643 -249 b 1036 111 839 -249 1036 -119 l 1036 1100 l 928 1032 l 927 317 b 808 261 903 286 808 261 b 739 445 743 313 739 363 l 739 686 b 346 1046 739 916 542 1046 l 345 1046 b 0 743 233 1046 0 938 b 292 517 0 612 102 533 l 304 536 b 84 798 165 595 84 695 b 308 974 84 918 180 974 b 630 734 445 974 630 848 l 629 384 b 743 163 629 288 661 233 l 753 174 b 927 275 801 220 870 250 l 927 63 b 605 -177 927 -52 742 -177 b 381 -1 477 -177 381 -121 b 602 260 381 102 462 201 l 589 279 b 297 54 400 264 297 185 b 643 -249 297 -142 531 -249 z "},"Þ":{"ha":526,"x_min":0,"x_max":0,"o":"m 16 0 b 100 77 35 14 67 38 b 155 248 138 121 150 201 b 216 208 172 232 195 216 b 437 357 294 283 410 321 b 458 427 450 375 458 397 l 458 828 b 252 948 458 901 315 946 l 157 854 l 157 1029 b 140 1044 157 1036 152 1044 l 138 1044 b 121 1038 134 1044 128 1042 l 7 962 l 10 955 l 14 955 b 47 911 44 955 47 925 l 47 165 b 12 5 47 74 28 28 z m 247 291 b 157 363 222 304 182 337 l 157 802 l 197 841 b 350 758 244 836 350 812 b 348 620 349 722 348 673 b 353 405 348 541 349 456 l 356 359 b 247 291 356 322 247 291 z "},"ß":{"ha":556,"x_min":0,"x_max":0,"o":"m 16 -136 b 100 -58 35 -122 67 -98 b 157 151 155 6 157 151 l 157 869 l 214 916 b 343 827 264 916 343 886 l 343 779 b 281 682 343 759 316 722 l 208 610 b 173 578 189 595 191 597 b 198 600 181 585 189 592 l 176 578 l 186 545 l 227 575 b 379 491 274 569 379 546 b 378 387 378 458 378 422 b 382 218 378 330 379 271 l 386 173 b 260 102 386 136 260 102 b 190 36 224 90 190 79 b 195 4 190 27 191 16 b 467 170 274 92 429 122 b 488 241 480 189 488 211 l 488 562 b 309 680 488 626 379 668 b 452 898 412 749 452 783 b 262 1017 452 964 323 1017 b 7 827 182 942 100 879 l 10 819 l 14 819 b 47 777 44 819 47 789 l 47 29 b 12 -130 47 -62 28 -108 z "},"à":{"ha":453,"x_min":0,"x_max":0,"o":"m 138 970 l 304 828 l 242 970 z m 408 0 l 487 85 b 392 321 395 162 392 181 l 392 625 l 311 625 b 407 796 352 669 390 722 l 302 822 b 190 647 288 743 242 695 b 47 433 129 591 47 531 l 47 231 b 164 11 47 136 83 81 l 176 0 b 310 109 225 56 273 83 b 408 0 334 64 370 34 z m 239 100 b 157 321 163 159 157 220 l 157 435 b 284 597 157 494 212 530 l 283 231 b 293 151 283 200 287 173 b 239 100 288 118 239 100 z "},"á":{"ha":453,"x_min":0,"x_max":0,"o":"m 408 0 l 487 85 b 392 321 395 162 392 181 l 392 625 l 311 625 b 407 796 352 669 390 722 l 302 822 b 190 647 288 743 242 695 b 47 433 129 591 47 531 l 47 231 b 164 11 47 136 83 81 l 176 0 b 310 109 225 56 273 83 b 408 0 334 64 370 34 z m 239 100 b 157 321 163 159 157 220 l 157 435 b 284 597 157 494 212 530 l 283 231 b 293 151 283 200 287 173 b 239 100 288 118 239 100 z m 304 888 l 199 888 l 138 747 z "},"â":{"ha":453,"x_min":0,"x_max":0,"o":"m 106 836 l 224 897 l 341 836 l 224 987 z m 408 0 l 487 85 b 392 321 395 162 392 181 l 392 625 l 311 625 b 407 796 352 669 390 722 l 302 822 b 190 647 288 743 242 695 b 47 433 129 591 47 531 l 47 231 b 164 11 47 136 83 81 l 176 0 b 310 109 225 56 273 83 b 408 0 334 64 370 34 z m 239 100 b 157 321 163 159 157 220 l 157 435 b 284 597 157 494 212 530 l 283 231 b 293 151 283 200 287 173 b 239 100 288 118 239 100 z "},"ã":{"ha":453,"x_min":0,"x_max":0,"o":"m 174 985 b 93 849 130 985 102 940 b 117 885 100 863 108 876 b 149 899 125 894 136 899 b 179 891 159 899 170 897 b 209 874 189 886 199 880 b 238 857 218 868 229 862 b 268 850 248 852 258 850 b 352 985 318 850 346 895 b 328 948 345 970 337 958 b 296 935 319 939 309 935 b 264 943 285 935 275 937 b 233 961 254 948 243 954 b 203 978 223 967 214 973 b 174 985 194 983 184 985 z m 408 0 l 487 85 b 392 321 395 162 392 181 l 392 625 l 311 625 b 407 796 352 669 390 722 l 302 822 b 190 647 288 743 242 695 b 47 433 129 591 47 531 l 47 231 b 164 11 47 136 83 81 l 176 0 b 310 109 225 56 273 83 b 408 0 334 64 370 34 z m 239 100 b 157 321 163 159 157 220 l 157 435 b 284 597 157 494 212 530 l 283 231 b 293 151 283 200 287 173 b 239 100 288 118 239 100 z "},"ä":{"ha":453,"x_min":0,"x_max":0,"o":"m 140 989 l 61 910 l 140 831 l 219 910 z m 219 910 l 298 831 l 377 910 l 298 989 z m 408 0 l 487 85 b 392 321 395 162 392 181 l 392 625 l 311 625 b 407 796 352 669 390 722 l 302 822 b 190 647 288 743 242 695 b 47 433 129 591 47 531 l 47 231 b 164 11 47 136 83 81 l 176 0 b 310 109 225 56 273 83 b 408 0 334 64 370 34 z m 239 100 b 157 321 163 159 157 220 l 157 435 b 284 597 157 494 212 530 l 283 231 b 293 151 283 200 287 173 b 239 100 288 118 239 100 z "},"å":{"ha":453,"x_min":0,"x_max":0,"o":"m 220 951 b 172 931 201 951 185 944 b 151 882 158 918 151 901 b 172 834 151 863 158 848 b 220 814 185 821 201 814 b 269 834 239 814 255 821 b 289 882 282 848 289 863 b 269 931 289 901 282 918 b 220 951 255 944 239 951 z m 220 915 b 243 905 229 915 237 912 b 253 882 250 899 253 892 b 243 859 253 873 250 865 b 220 850 237 853 229 850 b 197 859 211 850 203 853 b 187 882 191 865 187 873 b 197 905 187 892 191 899 b 220 915 203 912 211 915 z m 408 0 l 487 85 b 392 321 395 162 392 181 l 392 625 l 311 625 b 407 796 352 669 390 722 l 302 822 b 190 647 288 743 242 695 b 47 433 129 591 47 531 l 47 231 b 164 11 47 136 83 81 l 176 0 b 310 109 225 56 273 83 b 408 0 334 64 370 34 z m 239 100 b 157 321 163 159 157 220 l 157 435 b 284 597 157 494 212 530 l 283 231 b 293 151 283 200 287 173 b 239 100 288 118 239 100 z "},"æ":{"ha":642,"x_min":0,"x_max":0,"o":"m 463 0 l 615 164 l 592 184 l 519 106 b 393 311 397 177 393 218 b 587 502 458 334 587 415 b 399 707 587 605 487 707 l 399 707 l 241 529 l 246 517 l 250 517 b 283 474 280 517 283 487 l 283 232 b 295 163 283 206 288 184 b 239 101 290 134 279 117 b 157 321 163 159 157 220 l 157 435 b 188 505 157 461 167 481 b 273 587 208 530 239 557 b 311 625 295 609 291 604 b 407 797 351 667 393 722 l 302 822 b 190 647 288 743 242 695 b 97 557 159 618 125 591 b 47 433 70 525 47 483 l 47 231 b 164 11 47 136 83 81 l 176 0 b 321 115 220 48 269 82 b 463 0 357 65 415 32 z m 393 318 l 393 586 b 469 455 439 564 469 507 l 469 452 b 393 318 469 399 427 349 z "},"œ":{"ha":644,"x_min":0,"x_max":0,"o":"m 464 0 l 616 164 l 594 184 l 521 106 b 394 311 400 176 394 217 b 589 502 460 334 589 415 b 401 707 589 605 488 707 l 356 656 b 228 707 320 687 266 707 l 7 526 l 10 517 l 14 517 b 47 474 44 517 47 487 l 47 232 b 164 11 47 136 83 81 l 176 0 b 322 116 231 61 283 89 b 464 0 359 65 416 32 z m 239 101 b 157 321 163 159 157 220 l 157 586 l 178 604 b 285 515 225 595 285 566 l 286 232 b 292 178 286 212 288 194 l 294 155 b 239 101 294 120 239 101 z m 394 318 l 394 586 b 471 455 440 564 471 507 l 471 452 b 394 318 471 399 429 349 z "},"ç":{"ha":379,"x_min":0,"x_max":0,"o":"m 117 -185 b 237 -90 187 -172 237 -134 b 147 5 237 -28 193 5 l 146 5 l 163 43 b 227 0 185 27 208 14 l 379 164 l 356 184 l 283 106 b 157 321 157 179 157 220 l 157 586 l 173 599 b 271 543 212 595 256 578 l 370 633 b 228 707 339 677 270 707 l 7 526 l 10 517 l 14 517 b 47 474 44 517 47 487 l 47 232 b 118 78 47 161 79 114 l 68 -41 b 103 -38 81 -39 93 -38 b 176 -102 153 -38 176 -62 b 115 -180 176 -135 153 -161 z "},"è":{"ha":407,"x_min":0,"x_max":0,"o":"m 67 841 l 233 699 l 172 841 z m 227 0 l 379 163 l 357 184 l 283 106 b 157 311 161 177 157 218 b 352 502 223 334 352 414 b 163 707 352 605 251 707 l 5 529 l 10 517 l 14 517 b 47 474 44 517 47 487 l 47 231 b 227 0 47 106 150 51 z m 157 318 b 157 586 157 496 157 422 b 234 455 203 564 234 507 l 234 454 b 157 318 234 400 192 349 z "},"é":{"ha":407,"x_min":0,"x_max":0,"o":"m 227 0 l 379 163 l 357 184 l 283 106 b 157 311 161 177 157 218 b 352 502 223 334 352 414 b 163 707 352 605 251 707 l 5 529 l 10 517 l 14 517 b 47 474 44 517 47 487 l 47 231 b 227 0 47 106 150 51 z m 157 318 b 157 586 157 496 157 422 b 234 455 203 564 234 507 l 234 454 b 157 318 234 400 192 349 z m 233 821 l 129 821 l 67 679 z "},"ê":{"ha":407,"x_min":0,"x_max":0,"o":"m 49 707 l 167 768 l 284 707 l 167 859 z m 227 0 l 379 163 l 357 184 l 283 106 b 157 311 161 177 157 218 b 352 502 223 334 352 414 b 163 707 352 605 251 707 l 5 529 l 10 517 l 14 517 b 47 474 44 517 47 487 l 47 231 b 227 0 47 106 150 51 z m 157 318 b 157 586 157 496 157 422 b 234 455 203 564 234 507 l 234 454 b 157 318 234 400 192 349 z "},"ë":{"ha":407,"x_min":0,"x_max":0,"o":"m 85 881 l 7 802 l 85 723 l 165 802 z m 165 802 l 243 723 l 323 802 l 243 881 z m 227 0 l 379 163 l 357 184 l 283 106 b 157 311 161 177 157 218 b 352 502 223 334 352 414 b 163 707 352 605 251 707 l 5 529 l 10 517 l 14 517 b 47 474 44 517 47 487 l 47 231 b 227 0 47 106 150 51 z m 157 318 b 157 586 157 496 157 422 b 234 455 203 564 234 507 l 234 454 b 157 318 234 400 192 349 z "},"ì":{"ha":225,"x_min":0,"x_max":0,"o":"m 4 861 l 170 720 l 109 861 z m 172 0 l 253 87 b 157 300 165 155 157 183 l 157 673 b 140 688 157 680 152 688 b 121 682 136 688 129 686 l 7 606 l 10 599 l 14 599 b 47 555 44 599 47 569 l 47 231 b 172 0 47 104 110 58 z "},"í":{"ha":225,"x_min":0,"x_max":0,"o":"m 170 821 l 66 821 l 4 679 z m 172 0 l 253 87 b 157 300 165 155 157 183 l 157 673 b 140 688 157 680 152 688 b 121 682 136 688 129 686 l 7 606 l 10 599 l 14 599 b 47 555 44 599 47 569 l 47 231 b 172 0 47 104 110 58 z "},"î":{"ha":225,"x_min":0,"x_max":0,"o":"m -9 714 l 109 774 l 226 714 l 109 865 z m 172 0 l 253 87 b 157 300 165 155 157 183 l 157 673 b 140 688 157 680 152 688 b 121 682 136 688 129 686 l 7 606 l 10 599 l 14 599 b 47 555 44 599 47 569 l 47 231 b 172 0 47 104 110 58 z "},"ï":{"ha":225,"x_min":0,"x_max":0,"o":"m 24 888 l -54 808 l 24 730 l 104 808 z m 104 808 l 182 730 l 262 808 l 182 888 z m 172 0 l 253 87 b 157 300 165 155 157 183 l 157 673 b 140 688 157 680 152 688 b 121 682 136 688 129 686 l 7 606 l 10 599 l 14 599 b 47 555 44 599 47 569 l 47 231 b 172 0 47 104 110 58 z "},"ð":{"ha":462,"x_min":0,"x_max":0,"o":"m 176 0 b 394 250 291 128 394 109 l 394 636 l 383 638 b 261 699 332 653 292 674 l 311 699 l 348 808 l 182 808 b 165 898 170 838 165 869 b 180 1017 165 938 172 985 l 172 1022 b 77 829 120 970 77 909 b 78 808 77 822 77 815 l 39 808 l 3 699 l 111 699 b 286 549 145 638 203 583 l 286 430 b 294 159 286 336 288 238 l 294 155 b 239 101 294 120 239 101 b 157 321 163 159 157 220 l 157 606 l 7 484 l 10 475 l 14 475 b 47 431 44 475 47 445 l 47 232 b 164 11 47 136 83 81 z "},"ñ":{"ha":480,"x_min":0,"x_max":0,"o":"m 208 877 b 127 741 163 877 136 831 b 151 777 134 755 142 767 b 182 790 159 785 170 790 b 213 783 193 790 203 788 b 243 766 223 778 233 772 b 272 749 252 760 262 753 b 302 741 282 744 292 741 b 386 877 352 741 380 787 b 362 840 379 861 371 849 b 330 826 353 831 342 826 b 298 834 319 826 309 829 b 267 852 288 840 277 846 b 237 869 257 859 248 865 b 208 877 228 874 218 877 z m 428 0 l 509 87 b 412 321 415 159 412 186 l 412 584 b 227 704 412 652 299 704 l 6 524 l 9 515 l 13 515 b 47 470 45 515 47 483 l 47 0 l 157 0 l 157 584 l 179 602 b 303 513 229 602 303 568 l 303 231 b 428 0 303 104 366 58 z "},"ò":{"ha":462,"x_min":0,"x_max":0,"o":"m 144 861 l 311 720 l 249 861 z m 176 0 b 394 250 291 128 394 109 l 394 587 b 228 707 394 655 290 707 l 7 526 l 10 517 l 14 517 b 47 474 44 517 47 487 l 47 231 b 164 11 47 136 83 81 z m 239 101 b 157 321 163 159 157 220 l 157 586 l 178 604 b 285 515 225 595 285 566 l 285 417 b 294 159 285 330 286 241 l 294 155 b 239 101 294 120 239 101 z "},"ó":{"ha":462,"x_min":0,"x_max":0,"o":"m 311 861 l 206 861 l 144 720 z m 176 0 b 394 250 291 128 394 109 l 394 587 b 228 707 394 655 290 707 l 7 526 l 10 517 l 14 517 b 47 474 44 517 47 487 l 47 231 b 164 11 47 136 83 81 z m 239 101 b 157 321 163 159 157 220 l 157 586 l 178 604 b 285 515 225 595 285 566 l 285 417 b 294 159 285 330 286 241 l 294 155 b 239 101 294 120 239 101 z "},"ô":{"ha":462,"x_min":0,"x_max":0,"o":"m 106 721 l 224 781 l 341 721 l 224 872 z m 176 0 b 394 250 291 128 394 109 l 394 587 b 228 707 394 655 290 707 l 7 526 l 10 517 l 14 517 b 47 474 44 517 47 487 l 47 231 b 164 11 47 136 83 81 z m 239 101 b 157 321 163 159 157 220 l 157 586 l 178 604 b 285 515 225 595 285 566 l 285 417 b 294 159 285 330 286 241 l 294 155 b 239 101 294 120 239 101 z "},"õ":{"ha":462,"x_min":0,"x_max":0,"o":"m 208 877 b 127 741 163 877 136 831 b 151 777 134 755 142 767 b 182 790 159 785 170 790 b 213 783 193 790 203 788 b 243 766 223 778 233 772 b 272 749 252 760 262 753 b 302 741 282 744 292 741 b 386 877 352 741 380 787 b 362 840 379 861 371 849 b 330 826 353 831 342 826 b 298 834 319 826 309 829 b 267 852 288 840 277 846 b 237 869 257 859 248 865 b 208 877 228 874 218 877 z m 176 0 b 394 250 291 128 394 109 l 394 587 b 228 707 394 655 290 707 l 7 526 l 10 517 l 14 517 b 47 474 44 517 47 487 l 47 231 b 164 11 47 136 83 81 z m 239 101 b 157 321 163 159 157 220 l 157 586 l 178 604 b 285 515 225 595 285 566 l 285 417 b 294 159 285 330 286 241 l 294 155 b 239 101 294 120 239 101 z "},"ö":{"ha":462,"x_min":0,"x_max":0,"o":"m 142 729 l 212 796 l 142 865 l 74 796 z m 298 729 l 368 796 l 298 865 l 230 796 z m 176 0 b 394 250 291 128 394 109 l 394 587 b 228 707 394 655 290 707 l 7 526 l 10 517 l 14 517 b 47 474 44 517 47 487 l 47 231 b 164 11 47 136 83 81 z m 239 101 b 157 321 163 159 157 220 l 157 586 l 178 604 b 285 515 225 595 285 566 l 285 417 b 294 159 285 330 286 241 l 294 155 b 239 101 294 120 239 101 z "},"÷":{"ha":678,"x_min":0,"x_max":0,"o":"m 340 581 l 261 503 l 340 423 l 419 503 z m 104 407 l 68 298 l 593 298 l 629 407 z m 340 281 l 261 203 l 340 123 l 419 203 z "},"ø":{"ha":462,"x_min":0,"x_max":0,"o":"m 101 -16 l 127 45 b 176 0 144 28 155 20 b 394 250 292 128 394 109 l 394 587 b 376 636 394 604 387 621 l 412 722 l 353 722 l 332 673 b 228 707 299 694 258 707 l 7 526 l 10 517 l 14 517 b 47 474 44 517 47 487 l 47 232 b 88 92 47 174 60 132 l 43 -16 z m 159 260 b 157 321 157 279 157 298 l 157 586 l 178 604 b 278 544 216 597 261 577 z m 239 101 b 180 171 211 123 192 146 l 285 421 b 294 159 285 332 286 242 l 294 155 b 239 101 294 120 239 101 z "},"ù":{"ha":465,"x_min":0,"x_max":0,"o":"m 144 861 l 311 720 l 249 861 z m 412 0 l 492 87 l 469 106 b 397 293 400 159 397 210 l 397 673 b 380 688 397 680 392 688 b 361 682 375 688 369 686 l 248 606 l 250 599 l 254 599 b 288 555 284 599 288 569 l 288 231 b 292 172 288 210 289 191 l 294 159 l 294 155 b 239 101 294 120 239 101 b 229 106 235 102 233 104 b 157 293 160 159 157 210 l 157 673 b 140 688 157 680 152 688 b 121 682 135 688 129 686 l 7 606 l 10 599 l 14 599 b 47 555 44 599 47 569 l 47 231 b 172 0 47 108 103 64 b 314 111 223 58 274 85 b 412 0 337 66 365 44 z "},"ú":{"ha":465,"x_min":0,"x_max":0,"o":"m 358 861 l 254 861 l 192 720 z m 412 0 l 492 87 l 469 106 b 397 293 400 159 397 210 l 397 673 b 380 688 397 680 392 688 b 361 682 375 688 369 686 l 248 606 l 250 599 l 254 599 b 288 555 284 599 288 569 l 288 231 b 292 172 288 210 289 191 l 294 159 l 294 155 b 239 101 294 120 239 101 b 229 106 235 102 233 104 b 157 293 160 159 157 210 l 157 673 b 140 688 157 680 152 688 b 121 682 135 688 129 686 l 7 606 l 10 599 l 14 599 b 47 555 44 599 47 569 l 47 231 b 172 0 47 108 103 64 b 314 111 223 58 274 85 b 412 0 337 66 365 44 z "},"û":{"ha":465,"x_min":0,"x_max":0,"o":"m 133 728 l 251 788 l 368 728 l 251 879 z m 412 0 l 492 87 l 469 106 b 397 293 400 159 397 210 l 397 673 b 380 688 397 680 392 688 b 361 682 375 688 369 686 l 248 606 l 250 599 l 254 599 b 288 555 284 599 288 569 l 288 231 b 292 172 288 210 289 191 l 294 159 l 294 155 b 239 101 294 120 239 101 b 229 106 235 102 233 104 b 157 293 160 159 157 210 l 157 673 b 140 688 157 680 152 688 b 121 682 135 688 129 686 l 7 606 l 10 599 l 14 599 b 47 555 44 599 47 569 l 47 231 b 172 0 47 108 103 64 b 314 111 223 58 274 85 b 412 0 337 66 365 44 z "},"ü":{"ha":465,"x_min":0,"x_max":0,"o":"m 174 888 l 95 808 l 174 730 l 253 808 z m 253 808 l 332 730 l 411 808 l 332 888 z m 412 0 l 492 87 l 469 106 b 397 293 400 159 397 210 l 397 673 b 380 688 397 680 392 688 b 361 682 375 688 369 686 l 248 606 l 250 599 l 254 599 b 288 555 284 599 288 569 l 288 231 b 292 172 288 210 289 191 l 294 159 l 294 155 b 239 101 294 120 239 101 b 229 106 235 102 233 104 b 157 293 160 159 157 210 l 157 673 b 140 688 157 680 152 688 b 121 682 135 688 129 686 l 7 606 l 10 599 l 14 599 b 47 555 44 599 47 569 l 47 231 b 172 0 47 108 103 64 b 314 111 223 58 274 85 b 412 0 337 66 365 44 z "},"ý":{"ha":463,"x_min":0,"x_max":0,"o":"m 358 861 l 254 861 l 192 720 z m 184 -383 b 395 -29 281 -382 395 -301 l 395 672 b 377 688 395 679 389 688 b 359 682 372 688 366 686 l 245 606 l 248 598 l 252 598 b 286 555 282 598 286 568 l 286 132 b 240 101 271 112 240 101 b 157 321 174 147 157 204 l 157 673 b 140 688 157 680 152 688 b 121 682 135 688 129 686 l 7 606 l 10 599 l 14 599 b 47 555 44 599 47 569 l 47 231 b 176 0 47 109 108 64 b 286 92 216 43 253 70 l 286 -144 b 185 -349 286 -248 262 -349 b 60 -315 151 -349 119 -347 l 50 -339 b 184 -383 96 -372 136 -383 z "},"þ":{"ha":510,"x_min":0,"x_max":0,"o":"m 16 0 b 100 77 36 14 67 38 b 156 266 143 127 153 223 b 216 227 174 250 196 235 b 422 376 294 302 393 340 b 443 446 435 394 443 416 l 442 665 b 252 785 442 738 315 783 l 157 690 l 157 866 b 140 882 157 873 152 882 l 138 882 b 121 876 134 882 128 880 l 7 800 l 10 792 l 14 792 b 47 749 44 792 47 762 l 48 165 b 12 5 48 74 28 28 z m 248 309 b 157 382 222 322 183 356 l 157 637 l 197 677 b 334 594 245 672 334 648 b 332 524 332 561 332 541 b 336 424 332 496 334 477 l 340 378 b 248 309 340 340 248 309 z "},"ÿ":{"ha":462,"x_min":0,"x_max":0,"o":"m 174 888 l 95 808 l 174 730 l 253 808 z m 253 808 l 332 730 l 411 808 l 332 888 z m 184 -383 b 395 -29 281 -382 395 -301 l 395 672 b 377 688 395 679 389 688 b 359 682 372 688 366 686 l 245 606 l 248 598 l 252 598 b 286 555 282 598 286 568 l 286 132 b 240 101 271 112 240 101 b 157 321 174 147 157 204 l 157 673 b 140 688 157 680 152 688 b 121 682 135 688 129 686 l 7 606 l 10 599 l 14 599 b 47 555 44 599 47 569 l 47 231 b 176 0 47 109 108 64 b 286 92 216 43 253 70 l 286 -144 b 185 -349 286 -248 262 -349 b 60 -315 151 -349 119 -347 l 50 -339 b 184 -383 96 -372 136 -383 z "},"–":{"ha":678,"x_min":0,"x_max":0,"o":"m 104 408 l 68 298 l 593 298 l 629 408 z "},"—":{"ha":882,"x_min":0,"x_max":0,"o":"m 104 408 l 68 298 l 796 298 l 833 408 z "},"‘":{"ha":203,"x_min":0,"x_max":0,"o":"m 120 1085 b 0 960 45 1038 0 1008 b 78 818 0 926 24 883 l 153 913 b 97 1009 126 937 97 975 b 123 1080 97 1026 102 1050 z "},"’":{"ha":203,"x_min":0,"x_max":0,"o":"m 33 818 b 153 943 108 865 153 895 b 75 1085 153 977 129 1020 l 0 989 b 56 893 26 966 56 928 b 30 823 56 877 50 853 z "},"“":{"ha":339,"x_min":0,"x_max":0,"o":"m 266 1085 b 146 960 191 1038 146 1008 b 224 818 146 926 170 883 l 298 913 b 243 1009 272 937 243 975 b 269 1080 243 1026 248 1050 z m 120 1085 b 0 960 45 1038 0 1008 b 78 818 0 926 24 883 l 153 913 b 97 1009 126 937 97 975 b 123 1080 97 1026 102 1050 z "},"”":{"ha":339,"x_min":0,"x_max":0,"o":"m 33 818 b 153 943 108 865 153 895 b 75 1085 153 977 129 1020 l 0 989 b 56 893 26 966 56 928 b 30 823 56 877 50 853 z m 179 818 b 298 943 254 865 298 895 b 221 1085 298 977 275 1020 l 146 989 b 202 893 172 966 202 928 b 176 823 202 877 196 853 z "},"⁄":{"ha":34,"x_min":0,"x_max":0,"o":"m 206 1096 l -168 -52 l -148 -52 l 227 1096 z "},"∕":{"ha":34,"x_min":0,"x_max":0,"o":"m 206 1096 l -168 -52 l -148 -52 l 227 1096 z "},"₣":{"ha":1036,"x_min":0,"x_max":0,"o":"m 345 -104 b 739 257 541 -104 739 27 l 739 353 l 952 353 b 1033 328 987 353 1008 345 l 1036 330 b 909 457 1034 383 990 457 l 739 457 l 739 557 l 952 557 b 1033 532 987 557 1008 549 l 1036 534 b 909 661 1034 587 990 661 l 739 661 l 739 814 b 718 925 739 858 732 893 b 1082 874 855 903 990 874 b 1113 876 1093 874 1103 875 b 1314 1083 1219 885 1314 970 l 1314 1093 l 1302 1100 b 1124 995 1267 1032 1190 1000 l 1095 994 b 618 1042 989 994 780 1031 l 614 1046 l 611 1043 b 530 1046 582 1045 555 1046 b 481 1044 513 1046 496 1046 b 321 1001 424 1039 370 1025 b 174 829 241 961 192 893 l 188 821 b 276 919 200 857 228 895 b 456 952 324 943 387 952 b 549 947 486 952 517 950 l 557 940 b 629 753 625 886 629 837 l 629 661 l 555 661 b 471 681 524 661 492 665 l 468 677 b 594 557 471 620 521 557 l 629 557 l 629 457 l 555 457 b 471 477 524 457 492 462 l 468 474 b 594 353 471 416 521 353 l 629 353 l 629 208 b 308 -31 629 94 444 -31 b 83 144 180 -31 83 25 b 304 406 83 248 164 347 l 292 425 b 0 200 102 409 0 330 b 345 -104 0 4 233 -104 z "},"₤":{"ha":583,"x_min":0,"x_max":0,"o":"m 136 0 b 507 43 208 0 425 43 b 576 6 536 43 560 28 l 583 12 b 553 64 576 28 566 46 b 443 144 509 128 482 144 b 175 114 406 144 275 127 b 272 235 217 144 272 194 l 273 248 b 270 294 273 260 271 276 l 406 294 l 442 404 l 258 404 b 254 441 256 416 255 429 l 406 441 l 442 551 l 241 551 b 229 692 234 608 229 659 b 269 777 229 728 246 758 b 396 717 319 775 366 760 l 493 806 b 346 874 456 844 408 870 b 209 747 304 806 260 790 b 128 614 144 694 128 662 b 132 551 128 602 130 579 l 25 551 l -11 441 l 143 441 b 146 404 144 429 145 416 l 25 404 l -11 294 l 159 294 b 171 154 165 228 171 172 b 161 112 171 136 166 121 b 60 102 113 106 74 102 b 22 115 43 102 30 109 l 19 112 b 128 0 43 69 90 0 z "},"₧":{"ha":1774,"x_min":0,"x_max":0,"o":"m 346 -104 b 739 257 542 -104 739 27 l 739 339 b 793 306 756 326 774 313 b 1015 455 871 381 986 420 b 1036 526 1027 473 1036 496 l 1035 614 l 1115 614 l 1115 232 b 1240 0 1115 105 1177 58 l 1320 87 b 1224 321 1227 159 1224 186 l 1224 614 l 1335 614 l 1334 606 b 1333 585 1333 600 1333 593 b 1614 244 1333 395 1614 418 b 1569 95 1614 195 1606 142 b 1417 244 1479 102 1436 175 l 1331 154 b 1485 0 1347 91 1377 23 b 1726 261 1576 77 1726 104 b 1402 551 1726 463 1516 489 b 1466 538 1420 543 1442 538 l 1481 538 b 1714 613 1573 547 1634 605 l 1723 614 b 1749 610 1733 614 1742 612 l 1754 618 b 1639 694 1723 650 1693 694 l 1629 693 b 1388 612 1551 686 1454 618 l 1365 611 b 1336 615 1356 611 1348 612 l 1400 688 l 1224 688 l 1224 943 b 1208 959 1224 950 1219 959 b 1188 953 1202 959 1196 958 l 1075 876 l 1078 869 l 1082 869 b 1115 826 1112 869 1115 840 l 1115 688 l 1035 688 l 1035 926 b 829 1046 1035 999 892 1044 l 730 948 b 625 1090 714 1000 682 1041 l 614 1101 l 534 1015 l 557 994 b 629 812 625 942 629 892 l 630 208 b 308 -31 630 94 444 -31 b 83 144 180 -31 83 25 b 304 406 83 248 165 347 l 292 425 b 0 200 102 409 0 330 b 346 -104 0 4 234 -104 z m 824 389 b 739 456 801 401 765 430 l 740 869 b 738 903 740 881 739 892 l 774 939 b 927 855 821 933 927 910 b 925 712 926 819 925 767 b 929 503 925 635 926 553 l 933 457 b 824 389 933 420 824 389 z m 1528 730 l 1598 797 l 1528 865 l 1460 797 z m 461 396 l 530 465 l 461 534 l 394 465 z m 461 240 l 530 309 l 461 377 l 394 309 z "},"€":{"ha":678,"x_min":0,"x_max":0,"o":"m 416 0 l 568 159 l 545 180 l 472 103 b 346 312 347 174 346 214 l 346 359 l 573 359 l 610 468 l 346 468 l 346 522 l 573 522 l 609 631 l 346 631 l 346 867 l 361 880 b 460 824 401 875 446 859 l 559 913 b 417 984 528 956 459 984 l 196 808 l 199 800 l 203 800 b 237 757 233 800 237 770 l 237 631 l 84 631 l 47 522 l 237 522 l 237 468 l 84 468 l 47 359 l 237 359 l 237 225 b 416 0 237 96 349 45 z "},"№":{"ha":1551,"x_min":0,"x_max":0,"o":"m 345 -104 b 739 257 541 -104 739 27 l 739 869 b 737 908 739 883 739 896 l 774 939 b 928 855 822 933 928 910 l 926 222 b 1040 0 926 125 958 71 l 1122 85 b 1036 281 1040 142 1036 193 l 1036 926 b 829 1046 1036 999 892 1044 l 725 961 b 614 1101 705 1019 671 1046 l 534 1015 l 557 994 b 629 808 625 941 629 891 l 629 208 b 307 -31 629 94 444 -31 b 83 144 179 -31 83 25 b 304 406 83 248 164 347 l 292 425 b 0 200 102 409 0 330 b 345 -104 0 4 233 -104 z m 1265 329 b 1483 578 1380 457 1483 437 l 1483 823 b 1317 943 1483 892 1379 943 l 1137 795 l 1137 560 b 1253 340 1137 465 1173 410 z m 1329 430 b 1246 650 1253 488 1246 549 l 1246 823 l 1267 840 b 1374 752 1314 832 1374 803 l 1374 687 b 1383 488 1374 616 1375 577 l 1383 484 b 1329 430 1383 449 1329 430 z m 461 396 l 529 465 l 461 534 l 394 465 z m 461 240 l 529 309 l 461 377 l 394 309 z m 1444 200 l 1480 310 l 1151 310 l 1114 200 z "},"™":{"ha":754,"x_min":0,"x_max":0,"o":"m 137 608 b 293 751 214 608 293 659 l 293 1001 b 363 991 318 996 342 991 l 375 991 b 446 1033 403 994 431 1010 b 465 964 464 1015 465 995 l 465 649 l 507 649 l 507 999 l 528 1021 b 571 988 548 1019 571 1010 b 570 850 570 960 570 907 l 570 649 l 614 682 l 614 999 l 635 1021 b 677 988 654 1019 677 1010 l 677 736 b 722 649 677 699 690 677 l 754 683 b 720 760 722 705 720 725 l 720 1016 b 657 1063 720 1043 680 1063 l 614 1017 b 551 1063 613 1044 573 1063 l 506 1015 b 458 1085 502 1040 488 1059 l 431 1056 b 379 1039 416 1046 396 1040 l 368 1038 b 203 1059 324 1038 261 1059 l 186 1059 b 123 1041 164 1057 143 1051 b 65 973 92 1025 73 998 l 71 970 b 106 1008 75 984 86 999 b 168 1022 125 1018 146 1022 b 283 1003 205 1022 245 1012 l 249 977 l 250 732 b 122 636 250 686 176 636 b 33 706 71 636 33 659 b 121 810 33 747 65 787 l 116 817 b 0 728 41 811 0 780 b 137 608 0 650 92 608 z m 182 806 l 210 833 l 182 861 l 156 833 z m 182 744 l 210 771 b 182 798 192 789 201 781 l 156 771 z "},"−":{"ha":678,"x_min":0,"x_max":0,"o":"m 104 408 l 68 298 l 593 298 l 629 408 z "},"≤":{"ha":441,"x_min":0,"x_max":0,"o":"m 283 671 l 34 423 l 309 149 l 360 252 l 189 422 l 386 619 z m 71 110 l 34 0 l 350 0 l 386 110 z "},"≥":{"ha":441,"x_min":0,"x_max":0,"o":"m 111 671 l 60 568 l 231 397 l 34 200 l 137 149 l 386 396 z m 71 110 l 34 0 l 350 0 l 386 110 z "},"":{"ha":218,"x_min":0,"x_max":0,"o":"m 18 -381 b 100 -306 38 -368 68 -343 b 157 -96 155 -241 157 -96 l 157 673 l 188 672 b 410 715 266 672 344 682 b 524 878 485 752 524 822 b 519 908 524 888 522 899 l 509 903 b 514 878 513 896 514 887 b 444 774 514 844 494 799 b 268 743 396 751 334 743 b 157 749 232 743 194 746 l 157 943 b 141 959 157 950 152 959 b 121 953 136 959 129 957 l 7 876 l 10 869 l 14 869 b 47 826 44 869 47 840 l 47 763 l -59 778 l -168 705 b 47 681 -117 705 -39 690 l 47 -218 b 14 -376 47 -307 28 -353 z "},"":{"ha":1054,"x_min":0,"x_max":0,"o":"m 564 -54 b 909 127 642 -54 808 127 b 970 53 941 127 970 90 b 964 27 970 44 968 35 l 973 22 b 986 58 981 29 986 52 b 822 212 986 161 883 212 b 474 24 716 212 555 24 b 391 239 400 24 391 144 l 392 310 l 392 625 l 311 625 b 407 797 356 673 388 722 l 302 822 b 190 647 288 743 241 695 b 97 557 158 618 125 591 b 47 433 69 525 47 484 l 47 231 b 163 11 47 136 83 81 l 175 0 b 317 111 220 50 266 83 b 564 -54 371 35 477 -54 z m 239 101 b 157 321 163 159 157 220 l 157 435 b 284 598 157 494 212 530 l 283 190 b 293 153 283 180 287 167 b 239 101 290 119 239 101 z "},"":{"ha":485,"x_min":0,"x_max":0,"o":"m 200 0 b 418 250 315 129 418 109 l 418 587 b 292 702 418 644 348 688 b 304 821 300 735 304 777 b 241 1091 304 908 288 1008 l 235 1086 b 249 965 245 1042 249 1002 b 47 250 249 713 47 594 b 48 117 47 205 47 164 b 200 0 106 83 154 44 z m 271 104 b 144 195 231 142 189 173 b 252 588 153 380 210 474 b 309 515 283 576 309 553 b 318 159 309 397 307 272 l 318 156 b 271 104 318 129 286 111 z "},"":{"ha":814,"x_min":0,"x_max":0,"o":"m 328 -54 b 673 127 406 -54 572 127 b 734 53 705 127 734 90 b 728 27 734 44 732 35 l 737 22 b 750 58 745 29 750 52 b 586 212 750 161 647 212 b 238 24 480 212 319 24 b 156 239 165 24 156 144 b 157 394 156 342 157 313 l 157 586 l 173 599 b 271 543 212 595 256 578 l 370 633 b 228 707 338 677 270 707 l 7 526 l 10 517 l 14 517 b 47 474 44 517 47 487 l 47 190 b 328 -54 47 120 206 -54 z "},"":{"ha":454,"x_min":0,"x_max":0,"o":"m 172 0 l 186 15 b 391 250 288 119 391 117 b 189 965 391 594 189 713 b 203 1086 189 1002 193 1042 l 197 1091 b 133 819 151 1008 133 905 b 146 697 133 771 138 729 l 151 683 b 140 686 149 685 145 686 b 121 680 136 686 129 684 l 7 604 l 10 596 l 14 596 b 47 553 44 596 47 566 l 47 232 b 161 11 47 136 79 81 z m 236 101 l 235 101 l 229 106 b 157 289 161 159 157 208 l 157 661 b 294 159 202 527 294 392 b 236 101 294 132 259 110 z "},"":{"ha":814,"x_min":0,"x_max":0,"o":"m 121 730 l 190 797 l 121 865 l 53 797 z m 277 730 l 347 797 l 277 865 l 209 797 z m 328 -54 b 673 127 406 -54 572 127 b 734 54 706 127 734 90 b 728 27 734 45 732 35 l 738 22 b 750 58 745 29 750 52 b 586 212 750 161 647 212 b 238 24 480 212 319 24 b 156 239 165 24 156 144 l 157 311 b 351 502 223 334 351 415 b 163 707 351 605 251 707 l 5 530 l 10 517 l 14 517 b 47 474 44 517 47 487 l 47 190 b 328 -54 47 120 206 -54 z m 157 318 l 157 586 b 233 455 203 565 233 507 l 233 452 b 157 318 233 400 191 349 z "},"":{"ha":563,"x_min":0,"x_max":0,"o":"m 214 -269 b 494 -24 335 -269 494 -95 b 394 203 494 20 394 151 l 394 587 b 228 707 394 655 290 707 l 7 526 l 10 517 l 14 517 b 47 474 44 517 47 487 l 47 232 b 164 11 47 136 83 81 l 176 0 b 299 100 215 43 256 73 b 380 -80 300 88 380 -52 b 304 -191 380 -142 351 -191 b -44 -2 222 -191 62 -2 b -208 -157 -105 -2 -208 -54 b -196 -193 -208 -162 -204 -186 l -187 -188 b -193 -162 -191 -180 -193 -171 b -131 -87 -193 -125 -164 -87 b 214 -269 -30 -87 135 -269 z m 239 101 b 157 321 163 159 157 220 l 157 586 l 178 604 b 285 515 225 595 285 566 l 285 132 b 239 101 269 111 239 101 z "},"":{"ha":1078,"x_min":0,"x_max":0,"o":"m 589 -54 b 934 127 667 -54 833 127 b 995 53 966 127 995 90 b 989 27 995 44 993 35 l 998 22 b 1010 58 1006 29 1010 52 b 846 212 1010 161 907 212 b 498 24 741 212 580 24 b 417 235 426 24 417 141 l 418 310 l 418 587 b 259 707 418 655 315 707 l 157 594 l 157 848 b 253 1082 157 945 192 1015 l 247 1091 b 47 848 189 1067 47 992 l 47 0 l 157 0 l 157 548 l 204 599 b 308 515 252 593 308 570 l 308 190 b 589 -54 308 120 467 -54 z "},"":{"ha":814,"x_min":0,"x_max":0,"o":"m 92 730 l 161 797 l 92 865 l 23 797 z m 328 -54 b 673 127 406 -54 572 127 b 734 54 706 127 734 90 b 728 27 734 45 732 35 l 737 22 b 750 58 745 29 750 52 b 586 212 750 161 647 212 b 238 24 480 212 319 24 b 156 239 165 24 156 144 l 157 310 l 157 673 b 140 688 157 680 152 688 b 121 682 135 688 129 687 l 7 606 l 10 599 l 14 599 b 47 555 44 599 47 569 l 47 190 b 328 -54 47 120 206 -54 z "},"":{"ha":1078,"x_min":0,"x_max":0,"o":"m 591 -54 b 935 127 669 -54 834 127 b 996 53 968 127 996 90 b 991 27 996 44 994 35 l 1000 22 b 1012 58 1008 29 1012 52 b 848 212 1012 161 909 212 b 500 24 743 212 581 24 b 419 193 438 24 422 109 l 419 323 b 294 448 419 401 344 436 b 403 555 336 460 387 493 b 410 616 408 576 410 597 b 403 735 410 658 403 696 b 409 787 403 753 404 770 b 424 817 412 800 418 810 l 417 824 b 299 741 372 808 314 796 b 293 685 294 724 293 705 b 302 541 293 637 302 584 b 298 499 302 526 301 511 b 276 452 292 476 288 469 b 261 452 270 452 265 452 l 158 452 l 157 452 l 157 848 b 253 1082 157 945 193 1015 l 247 1091 b 47 848 189 1067 47 992 l 47 0 l 157 0 l 157 408 l 158 408 b 310 294 259 408 310 382 l 310 190 b 591 -54 310 120 469 -54 z "},"":{"ha":814,"x_min":0,"x_max":0,"o":"m 328 -54 b 673 127 406 -54 572 127 b 734 54 706 127 734 90 b 728 27 734 45 732 36 l 738 22 b 750 58 746 29 750 52 b 586 212 750 161 647 212 b 238 24 480 212 319 24 b 156 239 165 24 156 144 l 157 310 l 157 848 b 253 1082 157 945 193 1015 l 247 1091 b 47 848 189 1067 47 992 l 47 190 b 328 -54 47 120 207 -54 z "},"":{"ha":1322,"x_min":0,"x_max":0,"o":"m 304 -117 l 413 0 l 413 586 l 436 605 b 559 515 486 605 559 570 l 559 190 b 840 -54 559 120 719 -54 b 1185 127 919 -54 1084 127 b 1246 53 1218 127 1246 90 b 1241 27 1246 44 1244 35 l 1250 22 b 1262 58 1258 29 1262 52 b 1098 212 1262 161 1159 212 b 750 24 993 212 831 24 b 669 235 677 24 669 141 b 669 394 669 339 669 314 l 669 587 b 484 707 669 655 555 707 l 393 633 b 228 704 358 675 281 704 l 7 524 l 10 515 l 14 515 b 47 471 44 515 47 485 l 47 0 l 157 0 l 157 584 l 180 602 b 304 513 229 602 304 568 z "},"":{"ha":1051,"x_min":0,"x_max":0,"o":"m 585 -54 b 929 127 663 -54 828 127 b 990 54 962 127 990 90 b 985 27 990 45 988 35 l 994 22 b 1006 58 1002 29 1006 52 b 842 212 1006 161 903 212 b 494 24 736 212 575 24 b 412 239 421 24 412 144 b 413 394 412 342 413 313 l 413 585 b 228 704 413 653 299 704 l 7 524 l 10 515 l 14 515 b 47 471 44 515 47 485 l 47 0 l 157 0 l 157 584 l 180 602 b 304 513 229 602 304 568 l 304 190 b 585 -54 304 120 463 -54 z "},"":{"ha":956,"x_min":0,"x_max":0,"o":"m 469 -269 b 814 -87 547 -269 713 -87 b 875 -161 846 -87 875 -124 b 869 -188 875 -170 873 -180 l 878 -193 b 891 -157 886 -186 891 -164 b 727 -2 891 -71 814 -2 b 378 -191 621 -2 460 -191 b 302 -80 342 -191 302 -154 b 368 66 302 -64 334 8 b 394 151 392 108 394 117 l 394 587 b 227 707 394 655 290 707 l 6 526 l 9 517 l 14 517 b 47 473 45 517 47 486 l 47 232 b 164 11 47 136 83 81 l 176 0 b 214 38 189 14 201 27 b 189 -24 202 20 189 -5 b 469 -269 189 -113 364 -269 z m 239 101 b 157 321 163 159 157 220 l 157 586 l 178 604 b 284 515 225 595 284 566 b 294 159 285 397 283 272 l 294 156 b 239 101 294 120 239 101 z "},"":{"ha":814,"x_min":0,"x_max":0,"o":"m 328 -54 b 673 127 406 -54 572 127 b 734 54 706 127 734 90 b 728 26 734 44 732 35 l 738 22 b 750 58 746 29 750 52 b 586 212 750 161 647 212 b 238 24 480 212 319 24 b 156 239 165 24 156 144 l 157 310 l 157 614 l 281 614 l 347 688 l 157 688 l 157 943 b 140 959 157 949 152 959 b 121 953 135 959 129 957 l 7 876 l 10 869 l 14 869 b 47 826 44 869 47 840 l 47 688 l -32 688 l -32 614 l 47 614 l 47 190 b 328 -54 47 119 206 -54 z "},"":{"ha":1051,"x_min":0,"x_max":0,"o":"m 568 -18 b 913 163 646 -18 812 163 b 974 90 946 163 974 126 b 968 63 974 81 972 71 l 977 58 b 990 94 985 65 990 88 b 826 248 990 197 887 248 b 478 60 720 248 559 60 b 396 275 405 60 396 180 l 397 374 l 397 672 b 380 688 397 679 392 688 b 361 682 375 688 369 686 l 248 606 l 250 598 l 254 598 b 288 555 284 598 288 568 l 288 226 b 292 201 288 219 289 211 l 290 203 l 294 155 b 239 100 294 120 239 100 l 229 106 b 157 293 160 159 157 210 l 157 672 b 140 688 157 679 152 688 b 121 682 135 688 129 686 l 7 606 l 10 598 l 14 598 b 47 555 44 598 47 568 l 47 231 b 172 0 47 108 103 64 b 337 127 234 69 295 95 b 568 -18 393 56 489 -18 z m 143 -168 l 213 -101 l 143 -33 l 75 -101 z m 300 -168 l 369 -101 l 300 -33 l 231 -101 z "},"":{"ha":1099,"x_min":0,"x_max":0,"o":"m 61 -118 l 170 -1 l 170 336 b 176 360 170 346 172 353 b 233 352 189 356 220 353 b 303 241 303 345 303 315 l 303 229 b 612 -15 304 130 491 -15 b 958 167 691 -15 857 167 b 1019 92 990 167 1019 130 b 1013 66 1019 83 1017 75 l 1022 61 b 1034 98 1030 68 1034 92 b 870 252 1034 200 931 252 b 522 63 765 252 604 63 b 415 233 460 63 429 150 l 413 270 b 281 398 413 342 351 387 b 380 501 321 412 365 445 b 410 672 391 542 401 608 l 410 675 b 395 688 410 684 404 688 b 374 682 387 688 378 685 l 261 605 l 264 598 l 268 598 b 293 574 286 598 293 591 b 292 559 293 570 292 565 l 275 446 b 255 401 271 423 266 416 b 172 512 212 406 179 438 l 157 673 b 141 688 155 684 149 688 l 140 688 b 121 682 133 688 126 685 l 7 605 l 10 598 l 21 600 b 56 571 38 600 54 590 l 62 483 b 146 371 67 427 100 391 b 60 288 107 359 66 336 z "},"":{"ha":465,"x_min":0,"x_max":0,"o":"m 216 -287 b 497 -43 338 -287 497 -113 b 397 184 497 1 398 132 l 397 672 b 379 688 397 679 391 688 b 361 682 374 688 368 686 l 248 605 l 250 598 l 254 598 b 288 555 284 598 288 568 l 288 135 b 239 100 273 113 239 100 l 229 106 b 157 281 163 157 157 205 l 157 672 b 140 688 157 679 152 688 b 121 682 136 688 129 686 l 7 606 l 10 598 l 14 598 b 47 555 44 598 47 568 l 47 231 b 172 0 47 106 103 65 b 288 94 213 45 253 72 b 338 8 308 59 324 30 b 383 -98 359 -35 383 -83 b 307 -209 383 -160 354 -209 b -41 -20 226 -209 64 -20 b -205 -175 -102 -20 -205 -72 b -193 -212 -205 -180 -201 -204 l -184 -206 b -189 -180 -187 -198 -189 -189 b -128 -105 -189 -143 -161 -105 b 216 -287 -27 -105 138 -287 z "},"":{"ha":812,"x_min":0,"x_max":0,"o":"m 322 -18 b 667 163 400 -18 566 163 b 728 89 699 163 728 126 b 722 63 728 80 726 71 l 731 58 b 744 94 739 65 744 88 b 580 248 744 197 641 248 b 232 60 474 248 313 60 b 151 222 172 60 155 141 b 470 563 151 412 422 418 b 532 646 497 587 517 620 l 528 651 b 468 634 514 644 490 634 b 197 693 423 634 258 693 b 59 584 156 693 92 650 l 64 578 b 128 593 81 587 97 593 l 133 593 b 392 533 220 589 327 536 b 41 226 272 462 41 434 b 322 -18 41 156 200 -18 z m 317 205 l 386 272 l 317 340 l 248 272 z "}}}
